<?xml version="1.0" encoding="utf-8"?>
<!-- Generator: Adobe Illustrator 16.0.0, SVG Export Plug-In . SVG Version: 6.00 Build 0)  -->
<!DOCTYPE svg PUBLIC "-//W3C//DTD SVG 1.1//EN" "http://www.w3.org/Graphics/SVG/1.1/DTD/svg11.dtd">
<svg version="1.1" id="Capa_1" xmlns="http://www.w3.org/2000/svg" xmlns:xlink="http://www.w3.org/1999/xlink" x="0px" y="0px"
	 width="208px" height="77px" viewBox="0 0 208 77" enable-background="new 0 0 208 77" xml:space="preserve">
<g>
	<polygon fill="#3E77B8" points="18.188,76.648 173.714,76.648 207.359,0 18.188,0 	"/>
	<polygon fill="#FFFFFF" points="13.346,26.559 9.142,30.839 16.894,38.454 -0.141,38.454 -0.141,44.454 16.894,44.454 
		9.142,52.068 13.346,56.35 28.511,41.454 	"/>
	<g>
		<path fill="#FFFFFF" d="M44.162,18.573c0.095,0.228,0.188,0.456,0.281,0.686c0.092-0.236,0.188-0.47,0.286-0.7
			s0.203-0.45,0.315-0.661l4.223-7.902c0.053-0.099,0.106-0.178,0.163-0.236c0.056-0.06,0.118-0.103,0.188-0.129
			c0.068-0.026,0.146-0.043,0.231-0.049c0.085-0.007,0.188-0.01,0.306-0.01h2.003v14.266H49.82v-9.215
			c0-0.171,0.005-0.358,0.015-0.563c0.01-0.203,0.024-0.411,0.044-0.621l-4.312,8.09c-0.099,0.185-0.227,0.327-0.385,0.429
			c-0.157,0.103-0.342,0.153-0.552,0.153h-0.365c-0.211,0-0.395-0.051-0.553-0.153c-0.158-0.102-0.286-0.244-0.385-0.429l-4.37-8.12
			c0.025,0.218,0.044,0.43,0.054,0.637s0.015,0.399,0.015,0.577v9.215h-2.338V9.571h2.003c0.118,0,0.22,0.003,0.306,0.01
			c0.085,0.006,0.163,0.022,0.231,0.049c0.069,0.026,0.134,0.069,0.192,0.129c0.06,0.059,0.115,0.138,0.168,0.236l4.263,7.922
			C43.962,18.128,44.066,18.347,44.162,18.573z"/>
		<path fill="#FFFFFF" d="M57.86,10.765c0,0.211-0.043,0.408-0.128,0.592c-0.086,0.185-0.199,0.346-0.341,0.483
			c-0.141,0.139-0.307,0.248-0.498,0.331c-0.19,0.082-0.395,0.123-0.611,0.123c-0.211,0-0.409-0.041-0.597-0.123
			c-0.188-0.083-0.351-0.192-0.488-0.331c-0.139-0.138-0.249-0.299-0.331-0.483c-0.082-0.184-0.123-0.381-0.123-0.592
			c0-0.217,0.041-0.421,0.123-0.611c0.082-0.191,0.192-0.355,0.331-0.494c0.138-0.138,0.301-0.248,0.488-0.33
			s0.386-0.123,0.597-0.123c0.217,0,0.421,0.041,0.611,0.123c0.191,0.082,0.357,0.192,0.498,0.33
			c0.142,0.139,0.255,0.303,0.341,0.494C57.817,10.344,57.86,10.548,57.86,10.765z M57.496,13.715v10.122h-2.438V13.715H57.496z"/>
		<path fill="#FFFFFF" d="M60.248,23.837V13.715h1.43c0.25,0,0.425,0.046,0.523,0.138c0.099,0.093,0.164,0.25,0.197,0.474
			l0.147,1.224c0.362-0.625,0.786-1.118,1.273-1.48c0.486-0.361,1.032-0.542,1.638-0.542c0.5,0,0.914,0.115,1.243,0.345
			l-0.316,1.825c-0.02,0.119-0.063,0.202-0.128,0.252c-0.065,0.049-0.154,0.074-0.267,0.074c-0.099,0-0.233-0.023-0.404-0.069
			s-0.397-0.069-0.681-0.069c-0.507,0-0.94,0.14-1.303,0.42c-0.361,0.279-0.667,0.688-0.917,1.228v6.305H60.248z"/>
		<path fill="#FFFFFF" d="M75.954,23.837h-1.095c-0.23,0-0.411-0.034-0.543-0.104s-0.23-0.209-0.296-0.419l-0.217-0.721
			c-0.257,0.23-0.509,0.433-0.755,0.606c-0.247,0.175-0.502,0.321-0.765,0.439c-0.264,0.118-0.543,0.207-0.839,0.267
			c-0.296,0.059-0.625,0.089-0.986,0.089c-0.428,0-0.822-0.059-1.184-0.174c-0.362-0.115-0.673-0.288-0.933-0.52
			c-0.26-0.23-0.462-0.518-0.606-0.861c-0.146-0.343-0.218-0.742-0.218-1.197c0-0.383,0.101-0.761,0.301-1.134
			c0.201-0.373,0.535-0.709,1.002-1.01c0.467-0.3,1.088-0.549,1.864-0.747s1.74-0.297,2.891-0.297v-0.597
			c0-0.683-0.143-1.188-0.429-1.516s-0.702-0.492-1.248-0.492c-0.395,0-0.724,0.046-0.986,0.138
			c-0.264,0.093-0.492,0.196-0.687,0.311c-0.193,0.115-0.373,0.219-0.537,0.312c-0.165,0.092-0.346,0.138-0.543,0.138
			c-0.164,0-0.306-0.043-0.424-0.128c-0.118-0.086-0.214-0.191-0.286-0.316l-0.444-0.779c1.164-1.065,2.568-1.598,4.213-1.598
			c0.592,0,1.12,0.097,1.584,0.291c0.463,0.193,0.856,0.464,1.179,0.809c0.322,0.346,0.567,0.758,0.734,1.238
			c0.168,0.48,0.252,1.007,0.252,1.578V23.837z M71.218,22.317c0.25,0,0.479-0.022,0.69-0.067c0.21-0.046,0.409-0.113,0.597-0.204
			s0.368-0.202,0.543-0.335c0.174-0.133,0.351-0.29,0.527-0.472v-1.694c-0.71,0-1.304,0.045-1.78,0.135
			c-0.478,0.089-0.86,0.203-1.149,0.343c-0.29,0.139-0.495,0.302-0.617,0.486c-0.121,0.186-0.182,0.388-0.182,0.606
			c0,0.431,0.126,0.738,0.379,0.924C70.48,22.225,70.81,22.317,71.218,22.317z M75.52,9.413l-2.438,2.575
			c-0.125,0.132-0.245,0.222-0.36,0.271c-0.114,0.049-0.265,0.073-0.448,0.073h-1.46l1.4-2.397c0.099-0.171,0.214-0.301,0.346-0.39
			c0.131-0.089,0.328-0.133,0.592-0.133H75.52z"/>
		<path fill="#FFFFFF" d="M89.273,15.855c-0.073,0.092-0.144,0.164-0.213,0.217c-0.068,0.053-0.169,0.079-0.301,0.079
			c-0.125,0-0.246-0.038-0.365-0.113c-0.118-0.076-0.26-0.161-0.424-0.257c-0.164-0.095-0.36-0.181-0.587-0.256
			c-0.227-0.076-0.508-0.114-0.844-0.114c-0.428,0-0.803,0.078-1.125,0.232s-0.59,0.376-0.804,0.666
			c-0.214,0.289-0.373,0.64-0.479,1.051s-0.158,0.876-0.158,1.396c0,0.539,0.058,1.02,0.173,1.44s0.281,0.774,0.498,1.061
			c0.218,0.286,0.48,0.503,0.79,0.651c0.309,0.147,0.657,0.222,1.046,0.222c0.388,0,0.701-0.048,0.941-0.143
			c0.24-0.096,0.442-0.201,0.607-0.316c0.164-0.114,0.307-0.22,0.429-0.315c0.122-0.095,0.258-0.143,0.409-0.143
			c0.197,0,0.346,0.075,0.444,0.227l0.7,0.888c-0.27,0.316-0.563,0.581-0.878,0.795s-0.643,0.385-0.981,0.513
			s-0.689,0.219-1.051,0.271s-0.721,0.079-1.075,0.079c-0.625,0-1.214-0.117-1.767-0.351c-0.552-0.233-1.034-0.574-1.445-1.021
			s-0.736-0.994-0.977-1.643c-0.24-0.647-0.36-1.386-0.36-2.215c0-0.743,0.107-1.432,0.321-2.066s0.527-1.185,0.942-1.648
			c0.414-0.463,0.927-0.826,1.539-1.09c0.611-0.263,1.315-0.395,2.111-0.395c0.756,0,1.419,0.122,1.987,0.365
			c0.569,0.243,1.081,0.592,1.534,1.046L89.273,15.855z"/>
		<path fill="#FFFFFF" d="M95.893,13.557c0.756,0,1.441,0.122,2.057,0.365s1.14,0.589,1.573,1.036
			c0.435,0.447,0.77,0.993,1.007,1.638c0.236,0.645,0.354,1.364,0.354,2.16c0,0.803-0.118,1.526-0.354,2.171
			c-0.237,0.645-0.572,1.193-1.007,1.647c-0.434,0.454-0.958,0.803-1.573,1.046s-1.301,0.365-2.057,0.365
			c-0.757,0-1.444-0.122-2.063-0.365s-1.146-0.592-1.583-1.046c-0.438-0.454-0.776-1.003-1.017-1.647s-0.36-1.368-0.36-2.171
			c0-0.796,0.12-1.516,0.36-2.16s0.579-1.19,1.017-1.638c0.437-0.447,0.965-0.793,1.583-1.036S95.136,13.557,95.893,13.557z
			 M95.893,22.11c0.842,0,1.465-0.282,1.869-0.849c0.404-0.565,0.606-1.395,0.606-2.486s-0.202-1.924-0.606-2.496
			s-1.027-0.858-1.869-0.858c-0.855,0-1.487,0.288-1.895,0.863c-0.408,0.576-0.612,1.406-0.612,2.491
			c0,1.086,0.204,1.913,0.612,2.481C94.406,21.826,95.038,22.11,95.893,22.11z M99.316,9.413l-2.437,2.575
			c-0.125,0.132-0.245,0.222-0.36,0.271c-0.115,0.049-0.265,0.073-0.449,0.073h-1.46l1.401-2.397
			c0.099-0.171,0.214-0.301,0.345-0.39c0.132-0.089,0.329-0.133,0.593-0.133H99.316z"/>
		<path fill="#FFFFFF" d="M102.79,23.837V13.715h1.489c0.315,0,0.522,0.147,0.622,0.443l0.158,0.75
			c0.178-0.197,0.363-0.378,0.557-0.543c0.195-0.164,0.402-0.306,0.621-0.424c0.221-0.118,0.457-0.212,0.711-0.281
			s0.531-0.104,0.834-0.104c0.639,0,1.162,0.173,1.574,0.518c0.41,0.346,0.719,0.805,0.922,1.377
			c0.158-0.336,0.355-0.623,0.592-0.863s0.496-0.436,0.779-0.587s0.584-0.264,0.902-0.336c0.32-0.072,0.641-0.108,0.963-0.108
			c0.559,0,1.055,0.086,1.49,0.257c0.434,0.171,0.799,0.421,1.094,0.749c0.297,0.329,0.521,0.73,0.676,1.204
			s0.232,1.017,0.232,1.628v6.442h-2.438v-6.442c0-0.645-0.141-1.13-0.424-1.455c-0.283-0.326-0.697-0.488-1.242-0.488
			c-0.25,0-0.482,0.043-0.695,0.128c-0.215,0.086-0.402,0.209-0.563,0.37c-0.162,0.161-0.289,0.363-0.381,0.606
			s-0.139,0.523-0.139,0.839v6.442h-2.445v-6.442c0-0.678-0.137-1.171-0.41-1.479c-0.273-0.31-0.676-0.464-1.209-0.464
			c-0.348,0-0.676,0.087-0.98,0.261c-0.307,0.175-0.592,0.413-0.854,0.716v7.409H102.79z"/>
		<path fill="#FFFFFF" d="M123.725,13.557c0.756,0,1.441,0.122,2.057,0.365s1.139,0.589,1.572,1.036
			c0.436,0.447,0.77,0.993,1.008,1.638c0.236,0.645,0.354,1.364,0.354,2.16c0,0.803-0.117,1.526-0.354,2.171
			c-0.238,0.645-0.572,1.193-1.008,1.647c-0.434,0.454-0.957,0.803-1.572,1.046s-1.301,0.365-2.057,0.365
			c-0.758,0-1.445-0.122-2.063-0.365c-0.619-0.243-1.146-0.592-1.584-1.046s-0.775-1.003-1.016-1.647s-0.361-1.368-0.361-2.171
			c0-0.796,0.121-1.516,0.361-2.16s0.578-1.19,1.016-1.638s0.965-0.793,1.584-1.036C122.279,13.679,122.967,13.557,123.725,13.557z
			 M123.725,22.11c0.842,0,1.465-0.282,1.869-0.849c0.404-0.565,0.605-1.395,0.605-2.486s-0.201-1.924-0.605-2.496
			s-1.027-0.858-1.869-0.858c-0.855,0-1.488,0.288-1.895,0.863c-0.408,0.576-0.613,1.406-0.613,2.491
			c0,1.086,0.205,1.913,0.613,2.481C122.236,21.826,122.869,22.11,123.725,22.11z"/>
		<path fill="#FFFFFF" d="M138.75,13.557c0.756,0,1.441,0.122,2.057,0.365s1.139,0.589,1.572,1.036
			c0.436,0.447,0.77,0.993,1.008,1.638c0.236,0.645,0.354,1.364,0.354,2.16c0,0.803-0.117,1.526-0.354,2.171
			c-0.238,0.645-0.572,1.193-1.008,1.647c-0.434,0.454-0.957,0.803-1.572,1.046s-1.301,0.365-2.057,0.365
			c-0.758,0-1.445-0.122-2.063-0.365c-0.619-0.243-1.146-0.592-1.584-1.046s-0.775-1.003-1.016-1.647s-0.361-1.368-0.361-2.171
			c0-0.796,0.121-1.516,0.361-2.16s0.578-1.19,1.016-1.638s0.965-0.793,1.584-1.036C137.305,13.679,137.992,13.557,138.75,13.557z
			 M138.75,22.11c0.842,0,1.465-0.282,1.869-0.849c0.404-0.565,0.605-1.395,0.605-2.486s-0.201-1.924-0.605-2.496
			s-1.027-0.858-1.869-0.858c-0.855,0-1.488,0.288-1.895,0.863c-0.408,0.576-0.613,1.406-0.613,2.491
			c0,1.086,0.205,1.913,0.613,2.481C137.262,21.826,137.895,22.11,138.75,22.11z"/>
		<path fill="#FFFFFF" d="M148.971,23.995c-0.875,0-1.549-0.249-2.023-0.745c-0.473-0.497-0.709-1.183-0.709-2.058V15.54h-1.027
			c-0.131,0-0.244-0.043-0.34-0.129c-0.096-0.085-0.143-0.213-0.143-0.385V14.06l1.627-0.267l0.514-2.762
			c0.025-0.132,0.086-0.233,0.182-0.306s0.217-0.109,0.361-0.109h1.262v3.188h2.664v1.736h-2.664v5.485
			c0,0.315,0.08,0.563,0.238,0.739c0.156,0.178,0.367,0.267,0.631,0.267c0.15,0,0.277-0.018,0.379-0.054s0.191-0.074,0.268-0.114
			c0.074-0.039,0.143-0.077,0.201-0.113c0.061-0.036,0.119-0.054,0.178-0.054c0.072,0,0.131,0.018,0.178,0.054
			s0.096,0.091,0.148,0.163l0.73,1.184c-0.355,0.296-0.764,0.52-1.225,0.671C149.941,23.919,149.463,23.995,148.971,23.995z"/>
		<path fill="#FFFFFF" d="M153.281,23.837V13.715h1.43c0.25,0,0.426,0.046,0.523,0.138c0.1,0.093,0.164,0.25,0.197,0.474
			l0.148,1.224c0.361-0.625,0.785-1.118,1.273-1.48c0.486-0.361,1.031-0.542,1.637-0.542c0.5,0,0.914,0.115,1.244,0.345
			l-0.316,1.825c-0.02,0.119-0.063,0.202-0.129,0.252c-0.064,0.049-0.154,0.074-0.266,0.074c-0.1,0-0.234-0.023-0.404-0.069
			c-0.172-0.046-0.398-0.069-0.682-0.069c-0.506,0-0.939,0.14-1.303,0.42c-0.361,0.279-0.666,0.688-0.916,1.228v6.305H153.281z"/>
		<path fill="#FFFFFF" d="M165.664,13.557c0.756,0,1.441,0.122,2.057,0.365s1.139,0.589,1.572,1.036
			c0.436,0.447,0.77,0.993,1.008,1.638c0.236,0.645,0.354,1.364,0.354,2.16c0,0.803-0.117,1.526-0.354,2.171
			c-0.238,0.645-0.572,1.193-1.008,1.647c-0.434,0.454-0.957,0.803-1.572,1.046s-1.301,0.365-2.057,0.365
			c-0.758,0-1.445-0.122-2.063-0.365c-0.619-0.243-1.146-0.592-1.584-1.046s-0.775-1.003-1.016-1.647s-0.361-1.368-0.361-2.171
			c0-0.796,0.121-1.516,0.361-2.16s0.578-1.19,1.016-1.638s0.965-0.793,1.584-1.036C164.219,13.679,164.906,13.557,165.664,13.557z
			 M165.664,22.11c0.842,0,1.465-0.282,1.869-0.849c0.404-0.565,0.605-1.395,0.605-2.486s-0.201-1.924-0.605-2.496
			s-1.027-0.858-1.869-0.858c-0.855,0-1.488,0.288-1.895,0.863c-0.408,0.576-0.613,1.406-0.613,2.491
			c0,1.086,0.205,1.913,0.613,2.481C164.176,21.826,164.809,22.11,165.664,22.11z"/>
		<path fill="#FFFFFF" d="M178.568,15.688c-0.066,0.105-0.135,0.18-0.207,0.223c-0.072,0.042-0.166,0.063-0.277,0.063
			c-0.117,0-0.244-0.032-0.379-0.099c-0.135-0.065-0.291-0.14-0.469-0.222s-0.381-0.156-0.607-0.222
			c-0.227-0.066-0.494-0.099-0.803-0.099c-0.48,0-0.859,0.102-1.135,0.306c-0.277,0.204-0.416,0.47-0.416,0.799
			c0,0.217,0.072,0.399,0.213,0.548c0.141,0.147,0.328,0.277,0.563,0.39c0.232,0.111,0.498,0.212,0.795,0.301
			c0.295,0.089,0.598,0.186,0.906,0.291c0.311,0.105,0.613,0.226,0.908,0.36c0.297,0.135,0.561,0.306,0.795,0.513
			c0.232,0.207,0.42,0.455,0.563,0.745c0.141,0.289,0.211,0.638,0.211,1.046c0,0.486-0.088,0.936-0.266,1.347
			s-0.438,0.766-0.779,1.065c-0.342,0.299-0.766,0.532-1.268,0.7c-0.504,0.168-1.08,0.252-1.732,0.252
			c-0.348,0-0.689-0.031-1.021-0.094s-0.65-0.149-0.957-0.262c-0.305-0.111-0.588-0.243-0.848-0.395s-0.488-0.315-0.686-0.493
			l0.563-0.928c0.072-0.111,0.158-0.197,0.256-0.257c0.1-0.059,0.225-0.089,0.375-0.089c0.152,0,0.295,0.043,0.43,0.129
			c0.135,0.085,0.291,0.178,0.469,0.276s0.387,0.19,0.627,0.276c0.238,0.085,0.543,0.128,0.912,0.128
			c0.289,0,0.537-0.034,0.744-0.104s0.379-0.159,0.514-0.271c0.135-0.111,0.232-0.242,0.295-0.39
			c0.063-0.148,0.094-0.301,0.094-0.459c0-0.236-0.07-0.431-0.211-0.582c-0.143-0.151-0.33-0.282-0.563-0.395
			c-0.234-0.111-0.5-0.212-0.799-0.301c-0.301-0.089-0.605-0.186-0.918-0.291s-0.619-0.229-0.918-0.37s-0.566-0.32-0.799-0.538
			c-0.234-0.217-0.422-0.483-0.563-0.799s-0.213-0.697-0.213-1.145c0-0.414,0.084-0.809,0.248-1.184s0.406-0.702,0.725-0.981
			c0.318-0.28,0.717-0.504,1.193-0.671c0.477-0.168,1.027-0.252,1.652-0.252c0.697,0,1.332,0.115,1.904,0.346
			c0.572,0.229,1.049,0.532,1.432,0.907L178.568,15.688z"/>
		<path fill="#FFFFFF" d="M43.949,48.066c-0.072,0.171-0.166,0.301-0.281,0.39s-0.291,0.133-0.527,0.133h-1.815l1.894-4.055
			l-4.094-9.372h2.131c0.197,0,0.349,0.046,0.454,0.138c0.104,0.093,0.184,0.197,0.236,0.315l2.161,5.249
			c0.072,0.171,0.135,0.349,0.188,0.533c0.052,0.184,0.099,0.368,0.138,0.552c0.053-0.19,0.11-0.375,0.173-0.552
			c0.063-0.178,0.13-0.358,0.202-0.543l2.032-5.239c0.053-0.131,0.14-0.239,0.262-0.325c0.121-0.085,0.258-0.128,0.409-0.128h1.953
			L43.949,48.066z"/>
		<path fill="#FFFFFF" d="M58.817,45.284h-1.095c-0.23,0-0.411-0.034-0.543-0.104s-0.23-0.209-0.296-0.419l-0.217-0.721
			c-0.257,0.23-0.509,0.433-0.755,0.606c-0.247,0.175-0.502,0.321-0.765,0.439c-0.264,0.118-0.543,0.207-0.839,0.267
			c-0.296,0.059-0.625,0.089-0.986,0.089c-0.428,0-0.822-0.059-1.184-0.174c-0.362-0.115-0.673-0.288-0.933-0.52
			c-0.26-0.23-0.462-0.518-0.606-0.861c-0.146-0.343-0.218-0.742-0.218-1.197c0-0.383,0.101-0.761,0.301-1.134
			c0.201-0.373,0.535-0.709,1.002-1.01c0.467-0.3,1.088-0.549,1.864-0.747s1.74-0.297,2.891-0.297v-0.597
			c0-0.683-0.143-1.188-0.429-1.516s-0.702-0.492-1.248-0.492c-0.395,0-0.724,0.046-0.986,0.138
			c-0.264,0.093-0.492,0.196-0.687,0.311c-0.193,0.115-0.373,0.219-0.537,0.312c-0.165,0.092-0.346,0.138-0.543,0.138
			c-0.164,0-0.306-0.043-0.424-0.128c-0.118-0.086-0.214-0.191-0.286-0.316l-0.444-0.779c1.164-1.065,2.568-1.598,4.213-1.598
			c0.592,0,1.12,0.097,1.584,0.291c0.463,0.193,0.856,0.464,1.179,0.809c0.322,0.346,0.567,0.758,0.734,1.238
			c0.168,0.48,0.252,1.007,0.252,1.578V45.284z M54.082,43.765c0.25,0,0.479-0.022,0.69-0.067c0.21-0.046,0.409-0.113,0.597-0.204
			s0.368-0.202,0.543-0.335c0.174-0.133,0.351-0.29,0.527-0.472v-1.694c-0.71,0-1.304,0.045-1.78,0.135
			c-0.478,0.089-0.86,0.203-1.149,0.343c-0.29,0.139-0.495,0.302-0.617,0.486c-0.121,0.186-0.182,0.388-0.182,0.606
			c0,0.431,0.126,0.738,0.379,0.924C53.343,43.672,53.673,43.765,54.082,43.765z"/>
		<path fill="#FFFFFF" d="M71.031,37.135c-0.065,0.105-0.135,0.18-0.207,0.223c-0.072,0.042-0.165,0.063-0.276,0.063
			c-0.118,0-0.245-0.032-0.38-0.099c-0.135-0.065-0.291-0.14-0.469-0.222s-0.38-0.156-0.606-0.222
			c-0.227-0.066-0.495-0.099-0.804-0.099c-0.48,0-0.858,0.102-1.135,0.306s-0.415,0.47-0.415,0.799c0,0.217,0.071,0.399,0.213,0.548
			c0.141,0.147,0.328,0.277,0.562,0.39c0.233,0.111,0.499,0.212,0.795,0.301s0.599,0.186,0.907,0.291
			c0.31,0.105,0.612,0.226,0.908,0.36s0.561,0.306,0.794,0.513s0.421,0.455,0.563,0.745c0.141,0.289,0.212,0.638,0.212,1.046
			c0,0.486-0.089,0.936-0.267,1.347s-0.438,0.766-0.779,1.065c-0.342,0.299-0.765,0.532-1.268,0.7s-1.08,0.252-1.731,0.252
			c-0.349,0-0.689-0.031-1.021-0.094s-0.651-0.149-0.957-0.262c-0.306-0.111-0.589-0.243-0.849-0.395s-0.488-0.315-0.686-0.493
			l0.563-0.928c0.072-0.111,0.158-0.197,0.257-0.257c0.099-0.059,0.224-0.089,0.375-0.089s0.294,0.043,0.429,0.129
			c0.135,0.085,0.291,0.178,0.469,0.276s0.387,0.19,0.627,0.276c0.239,0.085,0.544,0.128,0.912,0.128
			c0.289,0,0.538-0.034,0.745-0.104s0.378-0.159,0.513-0.271c0.135-0.111,0.233-0.242,0.296-0.39
			c0.063-0.148,0.094-0.301,0.094-0.459c0-0.236-0.07-0.431-0.212-0.582s-0.329-0.282-0.563-0.395
			c-0.233-0.111-0.5-0.212-0.799-0.301c-0.3-0.089-0.605-0.186-0.918-0.291s-0.618-0.229-0.917-0.37
			c-0.3-0.142-0.566-0.32-0.8-0.538c-0.233-0.217-0.421-0.483-0.562-0.799c-0.142-0.315-0.213-0.697-0.213-1.145
			c0-0.414,0.083-0.809,0.247-1.184s0.406-0.702,0.726-0.981c0.318-0.28,0.717-0.504,1.193-0.671
			c0.477-0.168,1.027-0.252,1.652-0.252c0.697,0,1.332,0.115,1.904,0.346c0.572,0.229,1.049,0.532,1.431,0.907L71.031,37.135z"/>
		<path fill="#FFFFFF" d="M77.828,35.004c0.638,0,1.225,0.103,1.761,0.306c0.536,0.204,0.998,0.502,1.387,0.893
			c0.388,0.392,0.69,0.872,0.907,1.44c0.218,0.569,0.326,1.219,0.326,1.949c0,0.184-0.009,0.337-0.025,0.459
			c-0.016,0.121-0.046,0.217-0.089,0.286c-0.042,0.068-0.1,0.118-0.172,0.147c-0.073,0.029-0.165,0.045-0.276,0.045h-6.255
			c0.072,1.039,0.352,1.802,0.838,2.288c0.487,0.487,1.132,0.73,1.935,0.73c0.395,0,0.734-0.046,1.021-0.139
			c0.286-0.092,0.536-0.193,0.75-0.306c0.214-0.111,0.401-0.213,0.563-0.306c0.161-0.092,0.317-0.138,0.469-0.138
			c0.099,0,0.184,0.02,0.256,0.059c0.072,0.04,0.135,0.096,0.188,0.168l0.711,0.888c-0.271,0.316-0.572,0.581-0.908,0.795
			c-0.335,0.214-0.686,0.385-1.051,0.513c-0.364,0.128-0.736,0.219-1.114,0.271c-0.379,0.053-0.745,0.079-1.101,0.079
			c-0.703,0-1.358-0.117-1.963-0.351c-0.605-0.233-1.132-0.579-1.579-1.036s-0.799-1.022-1.056-1.697
			c-0.256-0.674-0.385-1.455-0.385-2.343c0-0.69,0.112-1.34,0.336-1.948s0.544-1.138,0.962-1.589c0.418-0.45,0.928-0.807,1.529-1.07
			C76.392,35.136,77.071,35.004,77.828,35.004z M77.877,36.75c-0.711,0-1.267,0.201-1.668,0.602
			c-0.401,0.401-0.657,0.971-0.77,1.707h4.578c0-0.315-0.043-0.613-0.128-0.893c-0.086-0.279-0.218-0.524-0.396-0.735
			c-0.177-0.21-0.4-0.376-0.671-0.498C78.554,36.812,78.239,36.75,77.877,36.75z"/>
		<path fill="#FFFFFF" d="M88,45.284V30.623h2.437v5.634c0.395-0.375,0.829-0.678,1.302-0.907c0.474-0.23,1.029-0.346,1.668-0.346
			c0.553,0,1.042,0.094,1.47,0.281s0.784,0.45,1.07,0.789s0.503,0.743,0.651,1.214c0.148,0.47,0.222,0.988,0.222,1.554v6.442h-2.437
			v-6.442c0-0.618-0.144-1.097-0.429-1.436c-0.286-0.339-0.716-0.508-1.288-0.508c-0.421,0-0.815,0.095-1.184,0.286
			c-0.368,0.19-0.717,0.45-1.046,0.779v7.32H88z"/>
		<path fill="#FFFFFF" d="M107.148,45.284h-1.094c-0.23,0-0.412-0.034-0.543-0.104c-0.133-0.069-0.23-0.209-0.297-0.419
			l-0.216-0.721c-0.257,0.23-0.509,0.433-0.755,0.606c-0.247,0.175-0.502,0.321-0.765,0.439c-0.264,0.118-0.543,0.207-0.839,0.267
			c-0.296,0.059-0.625,0.089-0.986,0.089c-0.428,0-0.822-0.059-1.184-0.174c-0.362-0.115-0.673-0.288-0.933-0.52
			c-0.26-0.23-0.462-0.518-0.606-0.861c-0.146-0.343-0.218-0.742-0.218-1.197c0-0.383,0.101-0.761,0.301-1.134
			c0.201-0.373,0.535-0.709,1.002-1.01c0.467-0.3,1.088-0.549,1.864-0.747s1.74-0.297,2.891-0.297v-0.597
			c0-0.683-0.143-1.188-0.429-1.516s-0.702-0.492-1.248-0.492c-0.395,0-0.724,0.046-0.986,0.138
			c-0.264,0.093-0.492,0.196-0.687,0.311c-0.193,0.115-0.373,0.219-0.537,0.312c-0.165,0.092-0.346,0.138-0.543,0.138
			c-0.164,0-0.306-0.043-0.424-0.128c-0.118-0.086-0.214-0.191-0.286-0.316l-0.444-0.779c1.164-1.065,2.568-1.598,4.213-1.598
			c0.592,0,1.12,0.097,1.584,0.291c0.463,0.193,0.856,0.464,1.178,0.809c0.322,0.346,0.568,0.758,0.734,1.238
			c0.168,0.48,0.252,1.007,0.252,1.578V45.284z M102.414,43.765c0.25,0,0.479-0.022,0.69-0.067c0.21-0.046,0.409-0.113,0.597-0.204
			s0.368-0.202,0.543-0.335c0.174-0.133,0.351-0.29,0.527-0.472v-1.694c-0.71,0-1.304,0.045-1.78,0.135
			c-0.478,0.089-0.86,0.203-1.149,0.343c-0.29,0.139-0.495,0.302-0.617,0.486c-0.121,0.186-0.182,0.388-0.182,0.606
			c0,0.431,0.126,0.738,0.379,0.924C101.675,43.672,102.005,43.765,102.414,43.765z"/>
		<path fill="#FFFFFF" d="M109.547,45.284V35.162h1.49c0.314,0,0.521,0.147,0.621,0.443l0.168,0.8
			c0.203-0.211,0.42-0.401,0.646-0.572s0.467-0.319,0.719-0.444c0.254-0.125,0.525-0.221,0.814-0.286s0.605-0.099,0.947-0.099
			c0.553,0,1.043,0.094,1.471,0.281s0.783,0.45,1.07,0.789c0.285,0.339,0.502,0.743,0.65,1.214c0.148,0.47,0.223,0.988,0.223,1.554
			v6.442h-2.438v-6.442c0-0.618-0.143-1.097-0.428-1.436c-0.287-0.339-0.717-0.508-1.289-0.508c-0.42,0-0.814,0.095-1.184,0.286
			c-0.367,0.19-0.717,0.45-1.045,0.779v7.32H109.547z"/>
		<path fill="#FFFFFF" d="M43.664,58.751c-0.073,0.092-0.144,0.164-0.213,0.217c-0.068,0.053-0.169,0.079-0.301,0.079
			c-0.125,0-0.246-0.038-0.365-0.113c-0.118-0.076-0.26-0.161-0.424-0.257c-0.164-0.095-0.36-0.181-0.587-0.256
			c-0.227-0.076-0.508-0.114-0.844-0.114c-0.428,0-0.803,0.078-1.125,0.232s-0.59,0.376-0.804,0.666
			c-0.214,0.289-0.373,0.64-0.479,1.051s-0.158,0.876-0.158,1.396c0,0.539,0.058,1.02,0.173,1.44s0.281,0.774,0.498,1.061
			c0.218,0.286,0.48,0.503,0.79,0.651c0.309,0.147,0.657,0.222,1.046,0.222c0.388,0,0.701-0.048,0.941-0.143
			c0.24-0.096,0.442-0.201,0.607-0.316c0.164-0.114,0.307-0.22,0.429-0.315c0.122-0.095,0.258-0.143,0.409-0.143
			c0.197,0,0.346,0.075,0.444,0.227l0.7,0.888c-0.27,0.316-0.563,0.581-0.878,0.795s-0.643,0.385-0.981,0.513
			s-0.689,0.219-1.051,0.271s-0.721,0.079-1.075,0.079c-0.625,0-1.214-0.117-1.767-0.351c-0.552-0.233-1.034-0.574-1.445-1.021
			s-0.736-0.994-0.977-1.643c-0.24-0.647-0.36-1.386-0.36-2.215c0-0.743,0.107-1.432,0.321-2.066s0.527-1.185,0.942-1.648
			c0.414-0.463,0.927-0.826,1.539-1.09c0.611-0.263,1.315-0.395,2.111-0.395c0.756,0,1.419,0.122,1.987,0.365
			c0.569,0.243,1.081,0.592,1.534,1.046L43.664,58.751z"/>
		<path fill="#FFFFFF" d="M50.284,56.452c0.756,0,1.441,0.122,2.057,0.365s1.14,0.589,1.573,1.036
			c0.435,0.447,0.77,0.993,1.007,1.638c0.236,0.645,0.354,1.364,0.354,2.16c0,0.803-0.118,1.526-0.354,2.171
			c-0.237,0.645-0.572,1.193-1.007,1.647c-0.434,0.454-0.958,0.803-1.573,1.046s-1.301,0.365-2.057,0.365
			c-0.757,0-1.444-0.122-2.063-0.365s-1.146-0.592-1.583-1.046c-0.438-0.454-0.776-1.003-1.017-1.647s-0.36-1.368-0.36-2.171
			c0-0.796,0.12-1.516,0.36-2.16s0.579-1.19,1.017-1.638c0.437-0.447,0.965-0.793,1.583-1.036S49.527,56.452,50.284,56.452z
			 M50.284,65.006c0.842,0,1.465-0.282,1.869-0.849c0.404-0.565,0.606-1.395,0.606-2.486s-0.202-1.924-0.606-2.496
			s-1.027-0.858-1.869-0.858c-0.855,0-1.487,0.288-1.895,0.863c-0.408,0.576-0.612,1.406-0.612,2.491
			c0,1.086,0.204,1.913,0.612,2.481C48.796,64.722,49.428,65.006,50.284,65.006z"/>
		<path fill="#FFFFFF" d="M57.179,66.732V56.61h1.489c0.315,0,0.522,0.147,0.622,0.443l0.157,0.75
			c0.178-0.197,0.363-0.378,0.558-0.543c0.194-0.164,0.401-0.306,0.621-0.424c0.221-0.118,0.457-0.212,0.711-0.281
			c0.253-0.069,0.531-0.104,0.833-0.104c0.639,0,1.163,0.173,1.574,0.518c0.411,0.346,0.719,0.805,0.922,1.377
			c0.158-0.336,0.355-0.623,0.593-0.863c0.236-0.24,0.496-0.436,0.779-0.587c0.282-0.151,0.583-0.264,0.902-0.336
			s0.64-0.108,0.962-0.108c0.56,0,1.056,0.086,1.49,0.257c0.434,0.171,0.799,0.421,1.095,0.749c0.296,0.329,0.521,0.73,0.676,1.204
			s0.231,1.017,0.231,1.628v6.442h-2.437V60.29c0-0.645-0.142-1.13-0.424-1.455c-0.283-0.326-0.697-0.488-1.243-0.488
			c-0.25,0-0.482,0.043-0.695,0.128c-0.214,0.086-0.401,0.209-0.563,0.37s-0.288,0.363-0.38,0.606
			c-0.093,0.243-0.139,0.523-0.139,0.839v6.442h-2.446V60.29c0-0.678-0.137-1.171-0.409-1.479c-0.273-0.31-0.676-0.464-1.209-0.464
			c-0.349,0-0.676,0.087-0.981,0.261c-0.306,0.175-0.591,0.413-0.854,0.716v7.409H57.179z"/>
		<path fill="#FFFFFF" d="M73.793,70.037V56.61h1.489c0.158,0,0.293,0.036,0.404,0.108c0.112,0.072,0.185,0.184,0.218,0.335
			l0.197,0.938c0.407-0.467,0.876-0.845,1.405-1.135c0.529-0.289,1.149-0.434,1.86-0.434c0.552,0,1.057,0.115,1.514,0.345
			c0.457,0.23,0.852,0.564,1.185,1.002c0.332,0.438,0.588,0.977,0.77,1.618c0.181,0.641,0.271,1.376,0.271,2.205
			c0,0.756-0.102,1.456-0.306,2.101c-0.204,0.646-0.495,1.204-0.873,1.678s-0.835,0.844-1.371,1.109
			c-0.536,0.267-1.137,0.4-1.801,0.4c-0.572,0-1.058-0.088-1.455-0.262c-0.398-0.175-0.755-0.416-1.07-0.726v4.144H73.793z
			 M78.529,58.347c-0.507,0-0.939,0.106-1.298,0.32s-0.692,0.515-1.001,0.902v4.539c0.276,0.342,0.577,0.58,0.902,0.715
			c0.326,0.135,0.676,0.202,1.051,0.202c0.368,0,0.702-0.068,1.002-0.207c0.299-0.138,0.552-0.349,0.76-0.631
			c0.207-0.283,0.366-0.64,0.479-1.071c0.111-0.431,0.167-0.938,0.167-1.523c0-0.593-0.048-1.094-0.143-1.505
			c-0.096-0.411-0.232-0.745-0.409-1.002c-0.178-0.256-0.394-0.443-0.646-0.562C79.138,58.405,78.851,58.347,78.529,58.347z"/>
		<path fill="#FFFFFF" d="M84.952,66.732V56.61h1.43c0.25,0,0.425,0.046,0.523,0.138c0.099,0.093,0.164,0.25,0.197,0.474
			l0.147,1.224c0.362-0.625,0.786-1.118,1.273-1.48c0.486-0.361,1.032-0.542,1.638-0.542c0.5,0,0.914,0.115,1.243,0.345
			l-0.316,1.825c-0.02,0.119-0.063,0.202-0.128,0.252c-0.065,0.049-0.154,0.074-0.267,0.074c-0.099,0-0.233-0.023-0.404-0.069
			s-0.397-0.069-0.681-0.069c-0.507,0-0.94,0.14-1.303,0.42c-0.361,0.279-0.667,0.688-0.917,1.228v6.305H84.952z"/>
		<path fill="#FFFFFF" d="M97.333,56.452c0.756,0,1.441,0.122,2.057,0.365s1.14,0.589,1.573,1.036
			c0.435,0.447,0.77,0.993,1.007,1.638c0.236,0.645,0.354,1.364,0.354,2.16c0,0.803-0.118,1.526-0.354,2.171
			c-0.237,0.645-0.572,1.193-1.007,1.647c-0.434,0.454-0.958,0.803-1.573,1.046s-1.301,0.365-2.057,0.365
			c-0.757,0-1.444-0.122-2.063-0.365s-1.146-0.592-1.583-1.046c-0.438-0.454-0.776-1.003-1.017-1.647s-0.36-1.368-0.36-2.171
			c0-0.796,0.12-1.516,0.36-2.16s0.579-1.19,1.017-1.638c0.437-0.447,0.965-0.793,1.583-1.036S96.577,56.452,97.333,56.452z
			 M97.333,65.006c0.842,0,1.465-0.282,1.869-0.849c0.404-0.565,0.606-1.395,0.606-2.486s-0.202-1.924-0.606-2.496
			s-1.027-0.858-1.869-0.858c-0.855,0-1.487,0.288-1.895,0.863c-0.408,0.576-0.612,1.406-0.612,2.491
			c0,1.086,0.204,1.913,0.612,2.481C95.846,64.722,96.478,65.006,97.333,65.006z"/>
		<path fill="#FFFFFF" d="M104.229,66.732V56.61h1.49c0.314,0,0.521,0.147,0.621,0.443l0.158,0.75
			c0.178-0.197,0.363-0.378,0.557-0.543c0.195-0.164,0.402-0.306,0.621-0.424c0.221-0.118,0.457-0.212,0.711-0.281
			s0.531-0.104,0.834-0.104c0.639,0,1.162,0.173,1.574,0.518c0.41,0.346,0.719,0.805,0.922,1.377
			c0.158-0.336,0.355-0.623,0.592-0.863s0.496-0.436,0.779-0.587s0.584-0.264,0.902-0.336c0.32-0.072,0.641-0.108,0.963-0.108
			c0.559,0,1.055,0.086,1.49,0.257c0.434,0.171,0.799,0.421,1.094,0.749c0.297,0.329,0.521,0.73,0.676,1.204
			s0.232,1.017,0.232,1.628v6.442h-2.438V60.29c0-0.645-0.141-1.13-0.424-1.455c-0.283-0.326-0.697-0.488-1.242-0.488
			c-0.25,0-0.482,0.043-0.695,0.128c-0.215,0.086-0.402,0.209-0.563,0.37c-0.162,0.161-0.289,0.363-0.381,0.606
			s-0.139,0.523-0.139,0.839v6.442h-2.445V60.29c0-0.678-0.137-1.171-0.41-1.479c-0.273-0.31-0.676-0.464-1.209-0.464
			c-0.348,0-0.676,0.087-0.98,0.261c-0.307,0.175-0.592,0.413-0.854,0.716v7.409H104.229z"/>
		<path fill="#FFFFFF" d="M125.025,56.452c0.639,0,1.225,0.103,1.762,0.306c0.535,0.204,0.998,0.502,1.387,0.893
			c0.387,0.392,0.689,0.872,0.906,1.44c0.219,0.569,0.326,1.219,0.326,1.949c0,0.184-0.008,0.337-0.025,0.459
			c-0.016,0.121-0.045,0.217-0.088,0.286c-0.043,0.068-0.1,0.118-0.172,0.147c-0.074,0.029-0.166,0.045-0.277,0.045h-6.254
			c0.072,1.039,0.352,1.802,0.838,2.288c0.486,0.487,1.131,0.73,1.934,0.73c0.395,0,0.734-0.046,1.021-0.139
			c0.285-0.092,0.535-0.193,0.75-0.306c0.213-0.111,0.4-0.213,0.563-0.306c0.16-0.092,0.316-0.138,0.469-0.138
			c0.098,0,0.184,0.02,0.256,0.059c0.072,0.04,0.135,0.096,0.188,0.168l0.711,0.888c-0.271,0.316-0.572,0.581-0.908,0.795
			s-0.686,0.385-1.051,0.513s-0.736,0.219-1.115,0.271s-0.744,0.079-1.1,0.079c-0.703,0-1.359-0.117-1.963-0.351
			c-0.605-0.233-1.133-0.579-1.58-1.036s-0.799-1.022-1.055-1.697c-0.256-0.674-0.385-1.455-0.385-2.343
			c0-0.69,0.111-1.34,0.336-1.948c0.223-0.608,0.543-1.138,0.961-1.589c0.418-0.45,0.928-0.807,1.529-1.07
			C123.59,56.584,124.27,56.452,125.025,56.452z M125.076,58.198c-0.711,0-1.268,0.201-1.668,0.602
			c-0.402,0.401-0.658,0.971-0.77,1.707h4.578c0-0.315-0.043-0.613-0.129-0.893s-0.217-0.524-0.395-0.735
			c-0.178-0.21-0.4-0.376-0.672-0.498C125.752,58.26,125.438,58.198,125.076,58.198z"/>
		<path fill="#FFFFFF" d="M134.715,66.891c-0.875,0-1.549-0.249-2.023-0.745c-0.473-0.497-0.709-1.183-0.709-2.058v-5.652h-1.027
			c-0.131,0-0.244-0.043-0.34-0.129c-0.096-0.085-0.143-0.213-0.143-0.385v-0.967l1.627-0.267l0.514-2.762
			c0.025-0.132,0.086-0.233,0.182-0.306s0.217-0.109,0.361-0.109h1.262v3.188h2.664v1.736h-2.664v5.485
			c0,0.315,0.08,0.563,0.238,0.739c0.156,0.178,0.367,0.267,0.631,0.267c0.15,0,0.277-0.018,0.379-0.054s0.191-0.074,0.268-0.114
			c0.074-0.039,0.143-0.077,0.201-0.113c0.061-0.036,0.119-0.054,0.178-0.054c0.072,0,0.131,0.018,0.178,0.054
			s0.096,0.091,0.148,0.163l0.73,1.184c-0.355,0.296-0.764,0.52-1.225,0.671C135.686,66.814,135.207,66.891,134.715,66.891z"/>
		<path fill="#FFFFFF" d="M141.984,53.66c0,0.211-0.043,0.408-0.127,0.592c-0.086,0.185-0.199,0.346-0.342,0.483
			c-0.141,0.139-0.307,0.248-0.498,0.331c-0.189,0.082-0.395,0.123-0.611,0.123c-0.211,0-0.408-0.041-0.596-0.123
			c-0.188-0.083-0.352-0.192-0.488-0.331c-0.139-0.138-0.25-0.299-0.332-0.483c-0.082-0.184-0.123-0.381-0.123-0.592
			c0-0.217,0.041-0.421,0.123-0.611c0.082-0.191,0.193-0.355,0.332-0.494c0.137-0.138,0.301-0.248,0.488-0.33
			s0.385-0.123,0.596-0.123c0.217,0,0.422,0.041,0.611,0.123c0.191,0.082,0.357,0.192,0.498,0.33
			c0.143,0.139,0.256,0.303,0.342,0.494C141.941,53.239,141.984,53.443,141.984,53.66z M141.621,56.61v10.122h-2.438V56.61H141.621z
			"/>
		<path fill="#FFFFFF" d="M151.496,66.732c-0.316,0-0.523-0.148-0.621-0.444l-0.197-0.977c-0.211,0.237-0.432,0.451-0.662,0.642
			s-0.479,0.355-0.744,0.493s-0.553,0.245-0.857,0.32c-0.307,0.076-0.637,0.114-0.992,0.114c-0.553,0-1.059-0.115-1.52-0.346
			s-0.857-0.563-1.189-1.001s-0.588-0.979-0.77-1.623c-0.18-0.645-0.271-1.382-0.271-2.21c0-0.75,0.104-1.447,0.307-2.092
			s0.496-1.204,0.879-1.678c0.381-0.474,0.838-0.843,1.371-1.109c0.531-0.267,1.131-0.399,1.795-0.399
			c0.566,0,1.049,0.09,1.451,0.271c0.4,0.181,0.76,0.422,1.074,0.725v-5.348h2.438v14.661H151.496z M148.25,64.946
			c0.506,0,0.938-0.104,1.293-0.315c0.355-0.21,0.691-0.51,1.006-0.897v-4.538c-0.275-0.336-0.576-0.572-0.902-0.711
			c-0.326-0.138-0.676-0.207-1.051-0.207c-0.369,0-0.703,0.069-1.002,0.207c-0.299,0.139-0.553,0.348-0.76,0.627
			s-0.365,0.635-0.479,1.065c-0.111,0.431-0.168,0.938-0.168,1.524c0,0.592,0.049,1.093,0.145,1.504
			c0.094,0.411,0.23,0.747,0.408,1.007s0.395,0.447,0.652,0.563C147.648,64.89,147.936,64.946,148.25,64.946z"/>
		<path fill="#FFFFFF" d="M159.941,56.452c0.756,0,1.441,0.122,2.057,0.365s1.139,0.589,1.572,1.036
			c0.436,0.447,0.77,0.993,1.008,1.638c0.236,0.645,0.354,1.364,0.354,2.16c0,0.803-0.117,1.526-0.354,2.171
			c-0.238,0.645-0.572,1.193-1.008,1.647c-0.434,0.454-0.957,0.803-1.572,1.046s-1.301,0.365-2.057,0.365
			c-0.758,0-1.445-0.122-2.063-0.365c-0.619-0.243-1.146-0.592-1.584-1.046s-0.775-1.003-1.016-1.647s-0.361-1.368-0.361-2.171
			c0-0.796,0.121-1.516,0.361-2.16s0.578-1.19,1.016-1.638s0.965-0.793,1.584-1.036C158.496,56.574,159.184,56.452,159.941,56.452z
			 M159.941,65.006c0.842,0,1.465-0.282,1.869-0.849c0.404-0.565,0.605-1.395,0.605-2.486s-0.201-1.924-0.605-2.496
			s-1.027-0.858-1.869-0.858c-0.855,0-1.488,0.288-1.895,0.863c-0.408,0.576-0.613,1.406-0.613,2.491
			c0,1.086,0.205,1.913,0.613,2.481C158.453,64.722,159.086,65.006,159.941,65.006z"/>
	</g>
</g>
<g>
</g>
<g>
</g>
<g>
</g>
<g>
</g>
<g>
</g>
<g>
</g>
</svg>
