<?xml version="1.0" encoding="utf-8"?>
<!-- Generator: Adobe Illustrator 16.0.0, SVG Export Plug-In . SVG Version: 6.00 Build 0)  -->
<!DOCTYPE svg PUBLIC "-//W3C//DTD SVG 1.1//EN" "http://www.w3.org/Graphics/SVG/1.1/DTD/svg11.dtd">
<svg version="1.1" id="Capa_1" xmlns="http://www.w3.org/2000/svg" xmlns:xlink="http://www.w3.org/1999/xlink" x="0px" y="0px"
	 width="137px" height="32px" viewBox="0 0 137 32" enable-background="new 0 0 137 32" xml:space="preserve">
<path fill="#C13025" d="M6.279,19.47c-0.352-0.339-0.786-0.612-1.304-0.612c-1.033,0-1.971,0.922-2.136,2.128
	c-0.173,1.261,0.488,2.143,1.594,2.143c0.472,0,1.019-0.22,1.425-0.594l-0.36,2.623c-0.637,0.34-1.308,0.493-1.957,0.493
	c-2.242,0-3.854-1.923-3.489-4.562c0.384-2.81,2.511-4.751,4.887-4.751c0.62,0,1.215,0.175,1.701,0.512L6.279,19.47z"/>
<path fill="#C13025" d="M11.205,10.073l-0.971,7.055h0.034c0.814-1.032,1.696-1.512,2.833-1.512c2.082,0,2.874,1.585,2.542,3.987
	l-0.796,5.796h-2.914l0.667-4.855c0.152-1.105,0.165-2.255-1.003-2.255c-1.153,0-1.678,1.149-1.831,2.255l-0.667,4.855H6.187
	L8.29,10.073H11.205z"/>
<path fill="#C13025" d="M25.935,25.41h-3.198l0.158-1.152H22.86c-0.705,1.032-1.876,1.497-2.93,1.497
	c-2.672,0-4.199-2.574-3.791-5.554c0.41-2.979,2.605-5.534,5.277-5.534c1.038,0,2.067,0.446,2.607,1.359l0.14-1.015h3.199
	L25.935,25.41z M19.441,20.219c-0.18,1.319,0.437,2.333,1.735,2.333c1.303,0,2.196-1.014,2.378-2.333
	c0.174-1.275-0.434-2.35-1.732-2.35C20.521,17.869,19.618,18.943,19.441,20.219"/>
<path fill="#C13025" d="M31.482,15.485h0.038c0.999-1.379,2.043-1.843,3.406-1.843c2.658,0,3.451,1.932,3.066,4.726l-0.968,7.031
	h-3.501l0.763-5.544c0.149-1.089,0.565-2.998-1.166-2.998c-1.422,0-1.996,1.22-2.19,2.642l-0.81,5.9h-3.5l1.561-11.382h3.502
	L31.482,15.485z"/>
<path fill="#C13025" d="M50.512,24.119c-0.746,5.429-3.381,7.622-7.463,7.622c-2.548,0-5.752-1.519-5.635-4.88h4.406
	c0.046,0.446,0.282,0.771,0.6,0.97c0.319,0.198,0.714,0.3,1.083,0.3c2.115,0,2.745-1.598,3.028-3.662l0.083-0.596
	c-1.176,1.167-2.291,1.739-3.761,1.739c-3.24,0-5.075-2.836-4.569-6.523c0.513-3.738,3.24-6.927,6.633-6.927
	c1.296,0,2.414,0.5,3.019,1.769h0.042l0.186-1.347h3.929L50.512,24.119z M42.374,18.887c-0.224,1.621,0.534,2.866,2.134,2.866
	c1.598,0,2.698-1.245,2.921-2.866c0.214-1.57-0.533-2.892-2.131-2.892C43.698,15.995,42.587,17.316,42.374,18.887"/>
<path fill="#C13025" d="M66.815,18.024c-0.67,4.884-4.559,7.667-8.576,7.667c-3.993,0-7.146-2.758-6.47-7.667
	c0.675-4.916,4.562-7.695,8.579-7.695C64.367,10.329,67.491,13.108,66.815,18.024 M56.442,18.024
	c-0.249,1.825,0.605,3.227,2.408,3.227c1.8,0,3.04-1.401,3.29-3.227c0.243-1.77-0.599-3.261-2.4-3.261
	C57.938,14.764,56.685,16.255,56.442,18.024"/>
<path fill="#267D39" d="M74.145,11.029h0.058c1.488-1.877,3.114-2.673,5.003-2.673c2.117,0,3.813,0.994,4.562,3.236
	c1.295-2.113,3.424-3.236,5.426-3.236c3.723,0,4.623,2.809,4.088,6.704L91.8,25.854h-5.209l1.109-8.089
	c0.242-1.749,0.693-4.622-1.512-4.622c-2.404,0-2.847,2.609-3.125,4.622l-1.109,8.089h-5.208l1.11-8.089
	c0.258-1.879,0.653-4.749-1.664-4.749c-2.32,0-2.715,2.87-2.973,4.749l-1.111,8.089h-5.208L69.226,8.92h5.209L74.145,11.029z"/>
<path fill="#267D39" d="M114.105,26.436h-6.54l0.324-2.362h-0.072c-1.44,2.112-3.835,3.066-5.992,3.066
	c-5.461,0-8.584-5.264-7.748-11.354C94.915,9.692,99.404,4.47,104.866,4.47c2.121,0,4.225,0.914,5.332,2.777l0.285-2.071h6.539
	L114.105,26.436z M100.827,15.824c-0.369,2.696,0.891,4.766,3.551,4.766s4.489-2.069,4.859-4.766
	c0.357-2.61-0.885-4.807-3.543-4.807C103.033,11.018,101.187,13.214,100.827,15.824"/>
<path fill="#267D39" d="M133.103,8.226c-1.077-0.729-2.649-1.214-3.953-1.214c-0.885,0-2.456,0.437-2.631,1.697
	c-0.232,1.695,2.131,1.941,3.149,2.183c3.46,0.823,5.884,2.761,5.251,7.369c-0.897,6.544-6.443,9.263-11.445,9.263
	c-3.068,0-5.957-1.023-8.311-2.863l3.62-6.156c1.383,1.261,3.816,2.523,5.708,2.523c0.967,0,2.47-0.534,2.656-1.894
	c0.267-1.939-2.115-2.035-4.413-2.767c-2.294-0.728-4.507-2.081-3.893-6.541C119.68,3.715,124.845,1,129.558,1
	c2.435,0,4.813,0.435,6.881,1.6L133.103,8.226z"/>
<g>
</g>
<g>
</g>
<g>
</g>
<g>
</g>
<g>
</g>
<g>
</g>
</svg>
