<?xml version="1.0" encoding="utf-8"?>
<!-- Generator: Adobe Illustrator 16.0.0, SVG Export Plug-In . SVG Version: 6.00 Build 0)  -->
<!DOCTYPE svg PUBLIC "-//W3C//DTD SVG 1.1//EN" "http://www.w3.org/Graphics/SVG/1.1/DTD/svg11.dtd">
<svg version="1.1" id="Capa_1" xmlns="http://www.w3.org/2000/svg" xmlns:xlink="http://www.w3.org/1999/xlink" x="0px" y="0px"
	 width="478px" height="146px" viewBox="0 0 478 146" enable-background="new 0 0 478 146" xml:space="preserve">
<g>
	<path fill="#8EC3E6" d="M62.147,17.332c-5.333-7.207-15.416-11.24-25.014-11.24c-16.288,0-29.959,12.527-29.959,26.427
		c0,14.843,14.155,26.941,30.444,26.941c9.695,0,19.197-4.633,24.82-11.583h7.95C64.184,58.43,51.095,65.551,37.618,65.551
		C16.579,65.551,0,51.223,0,32.519C0,14.5,16.676,0,37.037,0c7.271,0,14.543,1.716,20.651,5.32
		c4.557,2.574,10.471,7.379,12.41,12.012H62.147z"/>
	<path fill="#8EC3E6" d="M85.418,1.03v38.524c0,4.547,0.485,9.352,3.296,13.299c3.006,4.204,8.338,6.606,13.962,6.606
		c5.042,0,10.18-2.059,13.186-5.749c3.49-4.118,3.975-9.181,3.975-14.157V1.03h7.175v38.524c0,6.435-0.679,12.612-5.333,17.932
		c-4.46,5.234-11.635,8.065-19.003,8.065c-7.175,0-14.156-2.66-18.712-7.55c-4.945-5.405-5.72-11.754-5.72-18.447V1.03H85.418z"/>
	<path fill="#8EC3E6" d="M138.067,1.03h7.174v63.406h-7.174V1.03z"/>
	<path fill="#8EC3E6" d="M156.294,1.03h19.294c10.277,0.086,19.875,1.544,28.117,7.379c8.144,5.92,13.089,15.015,13.089,24.195
		c0,9.095-4.363,17.589-11.731,23.595c-8.532,6.864-17.937,8.237-28.99,8.237h-19.778V1.03z M172.68,58.688
		c9.501-0.086,17.937-0.257,25.887-5.834c7.175-4.977,10.956-12.184,11.053-20.249c-0.097-8.237-3.781-14.929-11.15-20.077
		c-7.853-5.405-16.288-5.834-25.79-5.749h-9.211v51.909H172.68z"/>
	<path fill="#8EC3E6" d="M224.746,1.03h39.169v5.749H231.92v22.823h30.929v5.749H231.92v23.338h31.995v5.749h-39.169V1.03z"/>
	<path fill="#8EC3E6" d="M273.03,1.03h11.053l26.178,53.968L336.342,1.03h11.053v63.406h-7.175V8.065l-26.953,56.371h-6.107
		L280.205,8.065v56.371h-7.175V1.03z"/>
	<path fill="#8EC3E6" d="M431.068,32.519c0,18.447-17.161,33.033-37.909,33.033c-20.069,0-37.813-14.329-37.813-32.518
		C355.347,14.586,372.411,0,393.159,0C413.423,0,431.068,14.329,431.068,32.519z M393.257,6.006
		c-16.871,0.085-30.735,12.098-30.735,27.027c0,14.672,14.446,26.426,30.735,26.426c16.869,0,30.637-11.926,30.637-26.941
		c0-14.672-14.252-26.427-30.637-26.427V6.006z"/>
	<path fill="#8EC3E6" d="M441.444,46.675c0.193,6.95,6.302,12.784,14.35,12.784c8.144,0,14.834-5.234,14.834-12.527
		c0-3.432-1.939-6.864-4.945-9.009c-3.297-2.402-6.98-3.26-11.053-4.204c-4.46-1.03-9.017-2.06-12.604-4.805
		c-3.976-3.003-6.012-7.293-6.012-11.84c0-10.21,9.113-17.074,20.36-17.074c10.858,0,19.778,7.465,19.683,17.16h-7.467
		c-0.484-6.435-5.72-11.068-13.088-11.068c-6.98,0-12.313,5.063-12.313,11.068c0,7.636,7.175,9.438,14.155,11.154
		c5.139,1.287,9.599,2.06,13.768,5.406c4.266,3.26,6.689,8.237,6.689,13.299c0,10.468-10.18,18.533-21.814,18.533
		c-12.217,0-22.299-7.808-22.203-18.876H441.444z"/>
	<path fill="#8EC3E6" d="M3.153,80.271h39.441v5.789H10.378v22.98h31.143v5.789H10.378v23.5h32.216v5.787H3.153V80.271z"/>
	<path fill="#8EC3E6" d="M59.095,80.271h7.225v58.059h29.873v5.787H59.095V80.271z"/>
	<path fill="#3E77B6" d="M168.328,80.271h12.018l34.932,63.846h-16.96l-8.985-16.5h-29.428l-9.21,16.5h-16.96L168.328,80.271z
		 M183.267,116.125l-8.873-19.352l-8.874,19.352H183.267z"/>
	<path fill="#3E77B6" d="M289.519,99.02c-4.941-5.27-13.478-8.467-21.789-8.467c-7.076,0-13.928,1.986-19.207,5.529
		c-5.729,3.889-9.547,10.195-9.547,16.07c0,5.355,3.145,11.059,7.975,14.859c5.615,4.578,13.479,7.17,21.453,7.17
		c9.771,0,19.768-4.664,24.261-11.49h-34.706v-11.145h54.138v1.383c0,18.66-20.442,32.744-44.142,32.744
		c-23.924,0-44.367-14.342-44.367-33.09c0-18.834,20.33-33.521,44.142-33.521c16.848,0,33.92,7.689,40.21,19.957H289.519z"/>
	<path fill="#3E77B6" d="M341.747,80.271V120.1c0,2.938-0.225,5.961,1.572,8.641c2.246,3.283,6.178,5.441,11.008,5.441
		c4.043,0,8.199-1.727,10.445-4.492c2.358-2.938,2.246-6.221,2.246-9.59V80.271h15.389V120.1c0,6.307-0.674,12.27-6.066,17.279
		c-5.391,4.924-13.59,8.295-22.014,8.295c-7.863,0-16.063-3.283-21.229-7.775c-6.066-5.271-6.74-11.146-6.74-17.799V80.271H341.747z
		"/>
	<path fill="#3E77B6" d="M430.142,80.271h12.018l34.932,63.846h-16.96l-8.985-16.5h-29.428l-9.211,16.5h-16.96L430.142,80.271z
		 M445.08,116.125l-8.873-19.352l-8.874,19.352H445.08z"/>
</g>
<g>
</g>
<g>
</g>
<g>
</g>
<g>
</g>
<g>
</g>
<g>
</g>
</svg>
