<?xml version="1.0" encoding="utf-8"?>
<!-- Generator: Adobe Illustrator 16.0.0, SVG Export Plug-In . SVG Version: 6.00 Build 0)  -->
<!DOCTYPE svg PUBLIC "-//W3C//DTD SVG 1.1//EN" "http://www.w3.org/Graphics/SVG/1.1/DTD/svg11.dtd">
<svg version="1.1" id="Capa_1" xmlns="http://www.w3.org/2000/svg" xmlns:xlink="http://www.w3.org/1999/xlink" x="0px" y="0px"
	 width="480px" height="325px" viewBox="0 0 480 325" enable-background="new 0 0 480 325" xml:space="preserve">
<g>
	<g>
		<path fill="#8EC4E6" d="M62.147,17.332c-5.333-7.207-15.416-11.24-25.014-11.24c-16.288,0-29.959,12.527-29.959,26.427
			c0,14.843,14.155,26.941,30.444,26.941c9.695,0,19.197-4.633,24.82-11.583h7.95C64.184,58.43,51.095,65.551,37.618,65.551
			C16.579,65.551,0,51.223,0,32.519C0,14.5,16.676,0,37.037,0c7.271,0,14.543,1.716,20.651,5.32
			c4.557,2.574,10.471,7.379,12.41,12.012H62.147z"/>
		<path fill="#8EC4E6" d="M85.418,1.03v38.524c0,4.547,0.485,9.352,3.296,13.299c3.006,4.204,8.338,6.606,13.962,6.606
			c5.042,0,10.18-2.059,13.186-5.749c3.49-4.118,3.975-9.181,3.975-14.157V1.03h7.175v38.524c0,6.435-0.679,12.612-5.333,17.932
			c-4.46,5.234-11.635,8.065-19.003,8.065c-7.175,0-14.156-2.66-18.712-7.55c-4.945-5.405-5.72-11.754-5.72-18.447V1.03H85.418z"/>
		<path fill="#8EC4E6" d="M138.067,1.03h7.174v63.406h-7.174V1.03z"/>
		<path fill="#8EC4E6" d="M156.294,1.03h19.294c10.277,0.086,19.875,1.544,28.117,7.379c8.144,5.92,13.089,15.015,13.089,24.195
			c0,9.095-4.363,17.589-11.731,23.595c-8.532,6.864-17.937,8.237-28.99,8.237h-19.778V1.03z M172.68,58.688
			c9.501-0.086,17.937-0.257,25.887-5.834c7.175-4.977,10.956-12.184,11.053-20.249c-0.097-8.237-3.781-14.929-11.15-20.077
			c-7.853-5.405-16.288-5.834-25.79-5.749h-9.211v51.909H172.68z"/>
		<path fill="#8EC4E6" d="M224.746,1.03h39.169v5.749H231.92v22.823h30.929v5.749H231.92v23.338h31.995v5.749h-39.169V1.03z"/>
		<path fill="#8EC4E6" d="M273.03,1.03h11.053l26.178,53.968L336.342,1.03h11.053v63.406h-7.175V8.065l-26.953,56.371h-6.107
			L280.205,8.065v56.371h-7.175V1.03z"/>
		<path fill="#8EC4E6" d="M431.068,32.519c0,18.447-17.161,33.033-37.909,33.033c-20.069,0-37.813-14.329-37.813-32.518
			C355.347,14.586,372.411,0,393.159,0C413.423,0,431.068,14.329,431.068,32.519z M393.257,6.006
			c-16.871,0.085-30.735,12.098-30.735,27.027c0,14.672,14.446,26.426,30.735,26.426c16.869,0,30.637-11.926,30.637-26.941
			c0-14.672-14.252-26.427-30.637-26.427V6.006z"/>
		<path fill="#8EC4E6" d="M441.444,46.675c0.193,6.95,6.302,12.784,14.35,12.784c8.144,0,14.834-5.234,14.834-12.527
			c0-3.432-1.939-6.864-4.945-9.009c-3.297-2.402-6.98-3.26-11.053-4.204c-4.46-1.03-9.017-2.06-12.604-4.805
			c-3.976-3.003-6.012-7.293-6.012-11.84c0-10.21,9.113-17.074,20.36-17.074c10.858,0,19.778,7.465,19.683,17.16h-7.467
			c-0.484-6.435-5.72-11.068-13.088-11.068c-6.98,0-12.313,5.063-12.313,11.068c0,7.636,7.175,9.438,14.155,11.154
			c5.139,1.287,9.599,2.06,13.768,5.406c4.266,3.26,6.689,8.237,6.689,13.299c0,10.468-10.18,18.533-21.814,18.533
			c-12.217,0-22.299-7.808-22.203-18.876H441.444z"/>
		<path fill="#8EC4E6" d="M3.153,80.271h39.441v5.789H10.378v22.981h31.143v5.789H10.378v23.5h32.216v5.789H3.153V80.271z"/>
		<path fill="#8EC4E6" d="M59.095,80.271h7.225v58.058h29.873v5.789H59.095V80.271z"/>
		<path fill="#3E77B8" d="M168.328,80.271h12.018l34.932,63.846h-16.96l-8.985-16.501h-29.428l-9.21,16.501h-16.96L168.328,80.271z
			 M183.267,116.125l-8.873-19.353l-8.874,19.353H183.267z"/>
		<path fill="#3E77B8" d="M289.519,99.02c-4.941-5.271-13.478-8.467-21.789-8.467c-7.076,0-13.928,1.987-19.207,5.529
			c-5.729,3.888-9.547,10.194-9.547,16.069c0,5.356,3.145,11.059,7.975,14.86c5.615,4.579,13.479,7.171,21.453,7.171
			c9.771,0,19.768-4.665,24.261-11.491h-34.706v-11.145h54.138v1.382c0,18.661-20.442,32.744-44.142,32.744
			c-23.924,0-44.367-14.342-44.367-33.089c0-18.834,20.33-33.521,44.142-33.521c16.848,0,33.92,7.689,40.21,19.958H289.519z"/>
		<path fill="#3E77B8" d="M341.747,80.271V120.1c0,2.938-0.225,5.961,1.572,8.64c2.246,3.283,6.178,5.443,11.008,5.443
			c4.043,0,8.199-1.728,10.445-4.493c2.358-2.937,2.246-6.22,2.246-9.59V80.271h15.389V120.1c0,6.307-0.674,12.269-6.066,17.279
			c-5.391,4.924-13.59,8.294-22.014,8.294c-7.863,0-16.063-3.283-21.229-7.775c-6.066-5.271-6.74-11.145-6.74-17.798V80.271H341.747
			z"/>
		<path fill="#3E77B8" d="M430.142,80.271h12.018l34.932,63.846h-16.96l-8.985-16.501h-29.428l-9.211,16.501h-16.96L430.142,80.271z
			 M445.08,116.125l-8.873-19.353l-8.874,19.353H445.08z"/>
	</g>
	<g>
		<g>
			<path fill="#8EC4E6" d="M5.634,265.539v2.914c1.41-2.201,4.558-3.285,7.148-3.285c2.623,0,5.05,0.961,7.345,3.285
				c1.082,0.932,2.131,3.164,2.131,5.645c0,5.053-4.492,8.805-9.706,8.805c-2.656,0-5.607-1.209-6.788-3.564v9.115H3.339v-22.914
				H5.634z M19.833,274.066c0-3.689-3.148-6.697-7.05-6.697c-3.935,0-7.181,2.76-7.181,6.512c0,1.859,0.492,3.41,1.902,4.742
				c1.344,1.334,3.181,2.078,5.115,2.078C16.619,280.701,19.833,277.879,19.833,274.066z"/>
			<path fill="#8EC4E6" d="M30.615,265.539h2.295v2.449c0.951-2.016,3.017-2.76,5.214-2.82v2.264
				c-1.312,0.092-2.23,0.371-3.247,1.178c-1.672,1.332-1.836,2.48-1.836,4.402v9.488h-2.426V265.539z"/>
			<path fill="#8EC4E6" d="M47.01,274.842c0.131,3.225,3.443,5.859,6.755,5.859c2.656,0,5.345-1.395,6.427-3.721h2.525
				c-1.246,3.41-4.918,5.922-8.723,5.922c-5.247,0-9.411-3.906-9.411-8.867c0-4.93,4.131-8.867,9.345-8.867
				c2.82,0,5.411,1.209,7.214,3.285c1.672,1.955,2.033,3.939,2.099,6.389H47.01z M60.815,272.764
				c-0.623-3.008-3.542-5.395-6.854-5.395c-3.377,0-6.361,2.264-6.952,5.395H60.815z"/>
			<path fill="#8EC4E6" d="M71.5,265.539h2.295v2.201c0.885-1.768,2.787-2.572,4.788-2.572c2.361,0,4.361,0.93,5.804,2.572
				c0.164,0.217,0.295,0.436,0.459,0.652c0.099-0.217,0.23-0.404,0.361-0.652c1.246-1.643,3.574-2.572,5.673-2.572
				c1.935,0,3.804,0.898,5.575,2.572c1.443,1.365,1.672,3.102,1.672,5.086v9.674h-2.427v-9.457c0-1.24-0.098-2.605-0.885-3.658
				c-0.984-1.303-2.394-2.016-4.066-2.016c-1.542,0-3.083,0.744-3.968,1.922c-0.787,1.055-0.754,2.512-0.754,3.752v9.457h-2.427
				v-9.705c0-1.271-0.065-2.264-0.853-3.379c-0.918-1.24-2.426-2.047-4.033-2.047c-1.508,0-3.017,0.619-3.935,1.799
				c-0.819,1.115-0.853,2.324-0.853,3.627v9.705H71.5V265.539z"/>
			<path fill="#8EC4E6" d="M107.168,259.586h2.426v3.906h-2.426V259.586z M107.168,265.539h2.426V282.5h-2.426V265.539z"/>
			<path fill="#8EC4E6" d="M136.907,282.5h-2.328v-3.193c-1.377,2.387-4.132,3.596-6.952,3.596c-2.689,0-5.607-1.115-7.903-3.596
				c-0.656-0.684-1.771-2.822-1.771-5.396c0-2.262,1.213-4.588,1.869-5.146c2.722-2.76,5.247-3.596,7.739-3.596
				c2.82,0,5.673,1.178,7.018,3.596v-3.225h2.328V282.5z M120.38,274.098c0,3.721,3.41,6.604,7.247,6.604
				c3.738,0,6.952-3.039,6.952-6.572c0-3.752-3.017-6.76-7.018-6.76C123.626,267.369,120.38,270.346,120.38,274.098z"/>
			<path fill="#8EC4E6" d="M145.952,265.539h2.295v2.449c1.377-1.828,3.213-2.82,5.574-2.82c2.394,0,4.755,0.992,6.362,2.82
				c1.377,1.645,1.639,3.441,1.639,5.582v8.93h-2.426v-8.93c0-1.457-0.131-2.822-1.049-4.031c-1.082-1.426-2.787-2.17-4.624-2.17
				c-1.672,0-3.41,0.775-4.394,2.076c-0.951,1.211-0.918,2.699-0.951,4.125v8.93h-2.426V265.539z"/>
			<path fill="#8EC4E6" d="M186.931,267.617h-3.738v-2.078h3.738v-5.953h2.426v5.953h4.165v2.078h-4.165V282.5h-2.426V267.617z"/>
			<path fill="#8EC4E6" d="M216.701,282.5h-2.295v-2.637c-1.18,2.172-3.443,3.039-5.935,3.039c-2.295,0-4.263-0.775-6.296-3.039
				c-1.082-1.084-1.279-3.131-1.279-5.363v-8.961h2.426v8.961c0,1.303,0.066,2.605,0.787,3.752c0.984,1.611,2.722,2.449,4.689,2.449
				c1.738,0,3.345-0.744,4.394-2.078c0.918-1.209,1.083-2.666,1.083-4.123v-8.961h2.426V282.5z"/>
			<path fill="#8EC4E6" d="M257.583,277.539c-1.607,3.316-4.854,5.363-8.723,5.363c-5.345,0-9.804-3.721-9.804-8.898
				c0-5.023,4.525-8.836,9.707-8.836c3.803,0,7.476,2.107,8.854,5.518h-2.723c-1.246-2.014-3.639-3.316-6.099-3.316
				c-3.968,0-7.313,2.791-7.313,6.604c0,3.752,3.115,6.729,7.116,6.729c2.787,0,4.722-1.086,6.295-3.162H257.583z"/>
			<path fill="#8EC4E6" d="M283.908,273.91c0,4.838-4.132,8.992-9.313,8.992c-5.082,0-9.41-3.906-9.41-8.773
				c0-4.932,4.164-8.961,9.41-8.961C279.579,265.168,283.908,269.197,283.908,273.91z M267.61,274.129
				c0,3.627,3.148,6.572,6.984,6.572c4.001,0,6.887-3.1,6.887-6.791c0-1.859-0.656-3.379-2.099-4.682
				c-1.278-1.146-3.017-1.859-4.788-1.859C270.628,267.369,267.61,270.438,267.61,274.129z"/>
			<path fill="#8EC4E6" d="M292.265,265.539h2.295v2.201c0.885-1.768,2.787-2.572,4.787-2.572c2.361,0,4.361,0.93,5.805,2.572
				c0.164,0.217,0.295,0.436,0.459,0.652c0.098-0.217,0.229-0.404,0.36-0.652c1.246-1.643,3.574-2.572,5.673-2.572
				c1.935,0,3.804,0.898,5.574,2.572c1.443,1.365,1.673,3.102,1.673,5.086v9.674h-2.427v-9.457c0-1.24-0.098-2.605-0.885-3.658
				c-0.984-1.303-2.395-2.016-4.066-2.016c-1.541,0-3.082,0.744-3.968,1.922c-0.787,1.055-0.755,2.512-0.755,3.752v9.457h-2.426
				v-9.705c0-1.271-0.066-2.264-0.854-3.379c-0.918-1.24-2.426-2.047-4.033-2.047c-1.508,0-3.016,0.619-3.935,1.799
				c-0.819,1.115-0.853,2.324-0.853,3.627v9.705h-2.426V265.539z"/>
			<path fill="#8EC4E6" d="M330.229,265.539v2.914c1.409-2.201,4.558-3.285,7.148-3.285c2.623,0,5.05,0.961,7.345,3.285
				c1.082,0.932,2.132,3.164,2.132,5.645c0,5.053-4.492,8.805-9.706,8.805c-2.656,0-5.607-1.209-6.788-3.564v9.115h-2.427v-22.914
				H330.229z M344.427,274.066c0-3.689-3.148-6.697-7.05-6.697c-3.935,0-7.181,2.76-7.181,6.512c0,1.859,0.491,3.41,1.901,4.742
				c1.345,1.334,3.181,2.078,5.115,2.078C341.214,280.701,344.427,277.879,344.427,274.066z"/>
			<path fill="#8EC4E6" d="M355.209,265.539h2.296v2.449c0.95-2.016,3.016-2.76,5.213-2.82v2.264
				c-1.312,0.092-2.229,0.371-3.246,1.178c-1.672,1.332-1.836,2.48-1.836,4.402v9.488h-2.427V265.539z"/>
			<path fill="#8EC4E6" d="M387.901,273.91c0,4.838-4.132,8.992-9.313,8.992c-5.083,0-9.411-3.906-9.411-8.773
				c0-4.932,4.164-8.961,9.411-8.961C383.573,265.168,387.901,269.197,387.901,273.91z M371.604,274.129
				c0,3.627,3.147,6.572,6.984,6.572c4,0,6.886-3.1,6.886-6.791c0-1.859-0.655-3.379-2.099-4.682
				c-1.279-1.146-3.017-1.859-4.787-1.859C374.62,267.369,371.604,270.438,371.604,274.129z"/>
			<path fill="#8EC4E6" d="M396.258,265.539h2.296v2.201c0.885-1.768,2.787-2.572,4.787-2.572c2.361,0,4.361,0.93,5.804,2.572
				c0.164,0.217,0.296,0.436,0.459,0.652c0.099-0.217,0.229-0.404,0.36-0.652c1.246-1.643,3.574-2.572,5.674-2.572
				c1.934,0,3.803,0.898,5.574,2.572c1.443,1.365,1.672,3.102,1.672,5.086v9.674h-2.426v-9.457c0-1.24-0.099-2.605-0.886-3.658
				c-0.983-1.303-2.394-2.016-4.065-2.016c-1.542,0-3.083,0.744-3.969,1.922c-0.787,1.055-0.754,2.512-0.754,3.752v9.457h-2.426
				v-9.705c0-1.271-0.066-2.264-0.854-3.379c-0.918-1.24-2.426-2.047-4.033-2.047c-1.508,0-3.017,0.619-3.936,1.799
				c-0.818,1.115-0.852,2.324-0.852,3.627v9.705h-2.427V265.539z"/>
			<path fill="#8EC4E6" d="M431.927,259.586h2.426v3.906h-2.426V259.586z M431.927,265.539h2.426V282.5h-2.426V265.539z"/>
			<path fill="#8EC4E6" d="M444.351,277.508c-0.064,1.736,1.41,3.193,3.247,3.193c1.737,0,3.147-1.146,3.147-2.822
				c0-2.045-1.705-2.789-3.476-3.254c-1.147-0.342-2.36-0.684-3.246-1.488c-0.951-0.807-1.442-2.016-1.442-3.225
				c0-2.76,2.36-4.744,5.181-4.744c2.688,0,4.951,2.107,4.951,4.588h-2.427c0-1.488-1.213-2.387-2.787-2.387
				c-1.377,0-2.492,1.055-2.492,2.355c0,1.861,1.574,2.357,3.148,2.822c2.688,0.807,5.017,1.891,5.017,4.961
				c0,3.193-2.459,5.395-5.804,5.395c-3.05,0-5.607-2.512-5.443-5.395H444.351z"/>
			<path fill="#8EC4E6" d="M479.073,273.91c0,4.838-4.133,8.992-9.313,8.992c-5.083,0-9.411-3.906-9.411-8.773
				c0-4.932,4.164-8.961,9.411-8.961C474.744,265.168,479.073,269.197,479.073,273.91z M462.775,274.129
				c0,3.627,3.147,6.572,6.984,6.572c4.001,0,6.886-3.1,6.886-6.791c0-1.859-0.655-3.379-2.098-4.682
				c-1.279-1.146-3.018-1.859-4.788-1.859C465.792,267.369,462.775,270.438,462.775,274.129z"/>
			<path fill="#8EC4E6" d="M20.869,312.053c-1.607,3.316-4.853,5.363-8.723,5.363c-5.345,0-9.804-3.721-9.804-8.898
				c0-5.023,4.525-8.836,9.706-8.836c3.804,0,7.476,2.107,8.854,5.518H18.18c-1.246-2.014-3.64-3.316-6.099-3.316
				c-3.968,0-7.313,2.791-7.313,6.604c0,3.752,3.115,6.729,7.116,6.729c2.787,0,4.722-1.086,6.296-3.162H20.869z"/>
			<path fill="#8EC4E6" d="M45.883,308.424c0,4.838-4.132,8.992-9.313,8.992c-5.083,0-9.411-3.906-9.411-8.773
				c0-4.932,4.164-8.961,9.411-8.961C41.554,299.682,45.883,303.711,45.883,308.424z M29.585,308.643
				c0,3.627,3.148,6.572,6.984,6.572c4,0,6.886-3.1,6.886-6.791c0-1.859-0.656-3.379-2.099-4.682
				c-1.279-1.146-3.017-1.859-4.788-1.859C32.602,301.883,29.585,304.951,29.585,308.643z"/>
			<path fill="#8EC4E6" d="M52.927,300.053h2.295v2.449c1.377-1.828,3.213-2.82,5.574-2.82c2.394,0,4.755,0.992,6.362,2.82
				c1.377,1.645,1.639,3.441,1.639,5.582v8.93h-2.426v-8.93c0-1.457-0.131-2.822-1.049-4.031c-1.082-1.426-2.787-2.17-4.624-2.17
				c-1.672,0-3.41,0.775-4.394,2.076c-0.951,1.211-0.918,2.699-0.951,4.125v8.93h-2.426V300.053z"/>
			<path fill="#8EC4E6" d="M90.956,309.355c0.131,3.225,3.443,5.859,6.755,5.859c2.656,0,5.345-1.395,6.427-3.721h2.525
				c-1.246,3.41-4.918,5.922-8.723,5.922c-5.247,0-9.411-3.906-9.411-8.867c0-4.93,4.131-8.867,9.345-8.867
				c2.82,0,5.411,1.209,7.214,3.285c1.672,1.955,2.033,3.939,2.099,6.389H90.956z M104.761,307.277
				c-0.623-3.008-3.542-5.395-6.854-5.395c-3.377,0-6.361,2.264-6.952,5.395H104.761z"/>
			<path fill="#8EC4E6" d="M114.134,294.1h2.426v22.914h-2.426V294.1z"/>
			<path fill="#8EC4E6" d="M154.823,312.053c-1.607,3.316-4.853,5.363-8.723,5.363c-5.345,0-9.804-3.721-9.804-8.898
				c0-5.023,4.525-8.836,9.706-8.836c3.804,0,7.476,2.107,8.854,5.518h-2.722c-1.246-2.014-3.64-3.316-6.099-3.316
				c-3.968,0-7.313,2.791-7.313,6.604c0,3.752,3.115,6.729,7.116,6.729c2.787,0,4.722-1.086,6.296-3.162H154.823z"/>
			<path fill="#8EC4E6" d="M177.607,317.014h-2.295v-2.637c-1.18,2.172-3.443,3.039-5.935,3.039c-2.295,0-4.263-0.775-6.296-3.039
				c-1.082-1.084-1.279-3.131-1.279-5.363v-8.961h2.426v8.961c0,1.303,0.066,2.605,0.787,3.752c0.984,1.611,2.722,2.449,4.689,2.449
				c1.738,0,3.344-0.744,4.394-2.078c0.918-1.209,1.083-2.666,1.083-4.123v-8.961h2.426V317.014z"/>
			<path fill="#8EC4E6" d="M185.34,294.1h2.426v3.906h-2.426V294.1z M185.34,300.053h2.426v16.961h-2.426V300.053z"/>
			<path fill="#8EC4E6" d="M213.833,317.014h-2.295v-3.102c-1.803,2.389-4.131,3.504-7.247,3.504c-2.591,0-4.984-0.992-7.509-3.504
				c-0.885-0.713-1.967-2.945-1.967-5.426c0-5.053,4.427-8.805,9.64-8.805c2.689,0,5.477,1.115,6.952,3.316V294.1h2.426V317.014z
				 M204.291,301.883c-3.804,0-7.05,2.914-7.05,6.572c0,3.721,3.181,6.76,7.116,6.76s7.116-3.039,7.116-6.76
				C211.472,304.703,208.193,301.883,204.291,301.883z"/>
			<path fill="#8EC4E6" d="M239.831,317.014h-2.328v-3.193c-1.377,2.387-4.132,3.596-6.952,3.596c-2.689,0-5.607-1.115-7.903-3.596
				c-0.656-0.684-1.771-2.822-1.771-5.396c0-2.262,1.213-4.588,1.869-5.146c2.722-2.76,5.247-3.596,7.739-3.596
				c2.82,0,5.673,1.178,7.018,3.596v-3.225h2.328V317.014z M223.304,308.611c0,3.721,3.41,6.604,7.247,6.604
				c3.738,0,6.952-3.039,6.952-6.572c0-3.752-3.017-6.76-7.018-6.76C226.551,301.883,223.304,304.859,223.304,308.611z"/>
			<path fill="#8EC4E6" d="M265.894,317.014h-2.295v-3.102c-1.803,2.389-4.131,3.504-7.246,3.504c-2.592,0-4.984-0.992-7.51-3.504
				c-0.885-0.713-1.967-2.945-1.967-5.426c0-5.053,4.426-8.805,9.641-8.805c2.688,0,5.476,1.115,6.951,3.316V294.1h2.426V317.014z
				 M256.353,301.883c-3.805,0-7.051,2.914-7.051,6.572c0,3.721,3.181,6.76,7.115,6.76c3.936,0,7.116-3.039,7.116-6.76
				C263.533,304.703,260.254,301.883,256.353,301.883z"/>
			<path fill="#8EC4E6" d="M291.663,308.424c0,4.838-4.133,8.992-9.313,8.992c-5.083,0-9.411-3.906-9.411-8.773
				c0-4.932,4.164-8.961,9.411-8.961C287.334,299.682,291.663,303.711,291.663,308.424z M275.365,308.643
				c0,3.627,3.147,6.572,6.984,6.572c4.001,0,6.886-3.1,6.886-6.791c0-1.859-0.655-3.379-2.098-4.682
				c-1.279-1.146-3.018-1.859-4.788-1.859C278.382,301.883,275.365,304.951,275.365,308.643z"/>
			<path fill="#8EC4E6" d="M329.725,317.014h-2.296v-3.102c-1.803,2.389-4.131,3.504-7.246,3.504c-2.591,0-4.984-0.992-7.51-3.504
				c-0.885-0.713-1.967-2.945-1.967-5.426c0-5.053,4.427-8.805,9.641-8.805c2.688,0,5.477,1.115,6.951,3.316V294.1h2.427V317.014z
				 M320.183,301.883c-3.804,0-7.051,2.914-7.051,6.572c0,3.721,3.182,6.76,7.116,6.76s7.116-3.039,7.116-6.76
				C327.364,304.703,324.085,301.883,320.183,301.883z"/>
			<path fill="#8EC4E6" d="M339.196,309.355c0.131,3.225,3.443,5.859,6.754,5.859c2.656,0,5.346-1.395,6.428-3.721h2.525
				c-1.246,3.41-4.919,5.922-8.723,5.922c-5.247,0-9.411-3.906-9.411-8.867c0-4.93,4.132-8.867,9.345-8.867
				c2.82,0,5.411,1.209,7.215,3.285c1.672,1.955,2.033,3.939,2.098,6.389H339.196z M353.001,307.277
				c-0.623-3.008-3.541-5.395-6.854-5.395c-3.377,0-6.361,2.264-6.951,5.395H353.001z"/>
			<path fill="#8EC4E6" d="M362.374,294.1h2.426v22.914h-2.426V294.1z"/>
			<path fill="#8EC4E6" d="M403.488,317.014h-2.328v-3.193c-1.378,2.387-4.132,3.596-6.952,3.596c-2.688,0-5.607-1.115-7.902-3.596
				c-0.656-0.684-1.771-2.822-1.771-5.396c0-2.262,1.213-4.588,1.868-5.146c2.723-2.76,5.247-3.596,7.739-3.596
				c2.82,0,5.673,1.178,7.018,3.596v-3.225h2.328V317.014z M386.962,308.611c0,3.721,3.41,6.604,7.246,6.604
				c3.738,0,6.952-3.039,6.952-6.572c0-3.752-3.017-6.76-7.018-6.76C390.208,301.883,386.962,304.859,386.962,308.611z"/>
			<path fill="#8EC4E6" d="M429.158,314.596c0,2.635-0.099,4.246-2.099,6.293c-1.738,1.799-4.525,2.76-7.082,2.76
				c-3.936,0-7.805-2.512-8.789-6.232h2.361c1.41,2.512,3.541,4.031,6.623,4.031c2.296,0,4.689-0.992,5.87-2.945
				c0.787-1.334,0.787-2.418,0.787-3.906v-0.932c-1.147,2.543-4.229,3.752-7.017,3.752c-2.361,0-4.756-0.961-6.461-2.48
				c-1.901-1.705-2.819-3.875-2.819-6.355c0-2.389,1.05-4.559,1.705-5.24c2.36-2.822,4.886-3.658,7.443-3.658
				c2.853,0,5.771,1.209,7.148,3.658v-3.287h2.328V314.596z M412.96,308.363c0,3.752,2.787,6.852,6.886,6.852
				c1.901,0,3.574-0.59,4.919-1.922c1.213-1.209,2.033-3.07,2.033-4.744c0-3.814-3.182-6.666-7.182-6.666
				C415.878,301.883,412.96,304.891,412.96,308.363z"/>
			<path fill="#8EC4E6" d="M452.696,317.014h-2.295v-2.637c-1.18,2.172-3.443,3.039-5.936,3.039c-2.295,0-4.262-0.775-6.295-3.039
				c-1.082-1.084-1.279-3.131-1.279-5.363v-8.961h2.426v8.961c0,1.303,0.066,2.605,0.787,3.752c0.984,1.611,2.723,2.449,4.689,2.449
				c1.738,0,3.345-0.744,4.395-2.078c0.918-1.209,1.082-2.666,1.082-4.123v-8.961h2.426V317.014z"/>
			<path fill="#8EC4E6" d="M478.694,317.014h-2.328v-3.193c-1.377,2.387-4.132,3.596-6.951,3.596c-2.689,0-5.607-1.115-7.903-3.596
				c-0.655-0.684-1.771-2.822-1.771-5.396c0-2.262,1.213-4.588,1.869-5.146c2.721-2.76,5.246-3.596,7.738-3.596
				c2.82,0,5.673,1.178,7.018,3.596v-3.225h2.328V317.014z M462.167,308.611c0,3.721,3.41,6.604,7.248,6.604
				c3.737,0,6.951-3.039,6.951-6.572c0-3.752-3.018-6.76-7.018-6.76C465.414,301.883,462.167,304.859,462.167,308.611z"/>
		</g>
	</g>
	<g>
		<path fill="#3E77B8" d="M153.208,193.531c0,0.287-0.026,0.586-0.109,0.85c-0.327,1.084-1.45,2.002-2.855,2.002
			c-1.173,0-2.105-0.666-2.105-2.074c0-2.152,2.373-2.746,5.07-2.732V193.531z M157.439,189.783c0-3.553-1.514-6.676-6.643-6.676
			c-2.632,0-4.721,0.742-5.861,1.398l0.833,2.852c1.043-0.656,2.704-1.201,4.274-1.201c2.603-0.004,3.028,1.471,3.028,2.418v0.225
			c-5.67-0.006-9.253,1.955-9.253,5.951c0,2.443,1.826,4.732,4.998,4.732c1.949,0,3.583-0.779,4.561-2.025h0.092
			c0,0,0.648,2.707,4.22,1.672c-0.189-1.127-0.25-2.328-0.25-3.777V189.783z"/>
		<path fill="#3E77B8" d="M69.122,178.273c0,0,3.703,15.172,4.293,17.637c0.691,2.873,1.933,3.932,5.52,3.219l2.312-9.41
			c0.589-2.334,0.98-4,1.357-6.379h0.067c0.264,2.402,0.641,4.049,1.123,6.389c0,0,0.941,4.268,1.423,6.512
			c0.483,2.246,1.83,3.66,5.341,2.889l5.511-20.855h-4.451l-1.88,9.016c-0.506,2.625-0.966,4.674-1.318,7.074h-0.064
			c-0.32-2.377-0.73-4.348-1.247-6.902l-1.958-9.188h-4.637l-2.094,8.955c-0.592,2.721-1.149,4.92-1.503,7.24h-0.063
			c-0.362-2.186-0.845-4.945-1.366-7.578c0,0-1.246-6.408-1.682-8.617H69.122z"/>
		<path fill="#3E77B8" d="M104.481,193.531c0,0.287-0.023,0.586-0.104,0.85c-0.328,1.084-1.453,2.002-2.859,2.002
			c-1.174,0-2.105-0.666-2.105-2.074c0-2.152,2.371-2.746,5.068-2.732V193.531z M108.712,189.783c0-3.553-1.517-6.676-6.642-6.676
			c-2.631,0-4.722,0.742-5.86,1.398l0.831,2.852c1.045-0.656,2.705-1.201,4.276-1.201c2.602-0.004,3.028,1.471,3.028,2.418v0.225
			c-5.671-0.006-9.254,1.955-9.254,5.951c0,2.443,1.825,4.732,4.995,4.732c1.952,0,3.583-0.779,4.563-2.025h0.096
			c0,0,0.649,2.707,4.216,1.672c-0.189-1.127-0.249-2.328-0.249-3.777V189.783z"/>
		<polygon fill="#3E77B8" points="115.773,194.699 115.773,178.273 111.539,178.273 111.539,199.129 115.773,199.129 		"/>
		<path fill="#3E77B8" d="M171.199,178.273v15.387c0,2.115,0.401,3.604,1.255,4.514c0.744,0.791,1.975,1.309,3.449,1.309
			c1.252,0,2.483-0.24,3.067-0.453l-0.054-3.313c-0.434,0.107-0.934,0.193-1.61,0.193c-1.442,0-1.928-0.926-1.928-2.83v-5.885h3.688
			v-3.99h-3.688v-4.932H171.199z"/>
		<path fill="#3E77B8" d="M160.263,183.463v15.666h4.372v-8.021c0-0.438,0.028-0.811,0.095-1.158
			c0.322-1.682,1.608-2.754,3.454-2.754c0.507,0,0.869,0.055,1.263,0.109v-4.102c-0.33-0.064-0.553-0.096-0.963-0.096
			c-1.634,0-3.487,1.053-4.265,3.309h-0.121v-2.953H160.263z"/>
		<path fill="#3E77B8" d="M118.741,183.463v15.666h4.261v-9.189c0-0.43,0.046-0.887,0.198-1.281
			c0.353-0.926,1.213-2.008,2.587-2.008c1.719,0,2.523,1.453,2.523,3.549v8.93h4.253v-9.301c0-0.412,0.056-0.906,0.178-1.27
			c0.35-1.053,1.278-1.908,2.557-1.908c1.742,0,2.578,1.426,2.578,3.891v8.588h4.258V189.9c0-4.865-2.472-6.793-5.262-6.793
			c-1.238,0-2.212,0.311-3.095,0.85c-0.741,0.457-1.403,1.102-1.984,1.953h-0.063c-0.673-1.689-2.256-2.803-4.32-2.803
			c-2.651,0-3.84,1.342-4.562,2.48h-0.065v-2.125H118.741z"/>
		<path fill="#EABF3B" d="M201.484,182.816c0.841,0,1.535-0.438,1.628-1.004l0.833-9.402c0-0.93-1.09-1.693-2.458-1.693
			c-1.369,0-2.455,0.764-2.455,1.693l0.829,9.402c0.09,0.566,0.786,1.004,1.625,1.004H201.484z"/>
		<path fill="#EABF3B" d="M196.401,185.754c0.42-0.729,0.387-1.549-0.055-1.908l-7.732-5.422c-0.803-0.467-2.009,0.096-2.694,1.281
			c-0.686,1.184-0.564,2.506,0.239,2.969l8.56,3.986c0.537,0.199,1.263-0.184,1.686-0.91L196.401,185.754z"/>
		<path fill="#EABF3B" d="M206.571,185.75c0.423,0.725,1.147,1.109,1.684,0.912l8.56-3.988c0.808-0.463,0.919-1.785,0.238-2.971
			c-0.685-1.184-1.891-1.746-2.694-1.281l-7.73,5.424c-0.443,0.361-0.476,1.18-0.053,1.908L206.571,185.75z"/>
		<path fill="#EABF3B" d="M201.484,194.561c0.841,0,1.535,0.434,1.628,1l0.833,9.406c0,0.93-1.09,1.691-2.458,1.691
			c-1.369,0-2.455-0.762-2.455-1.691l0.829-9.406c0.09-0.566,0.786-1,1.625-1H201.484z"/>
		<path fill="#EABF3B" d="M206.571,191.627c0.423-0.734,1.147-1.111,1.684-0.91l8.56,3.979c0.808,0.471,0.919,1.795,0.238,2.979
			c-0.685,1.182-1.891,1.744-2.694,1.281l-7.73-5.42c-0.443-0.367-0.476-1.186-0.053-1.912L206.571,191.627z"/>
		<path fill="#EABF3B" d="M196.401,191.623c0.42,0.727,0.387,1.545-0.055,1.912l-7.732,5.418c-0.803,0.465-2.009-0.098-2.694-1.281
			c-0.686-1.184-0.564-2.506,0.239-2.977l8.56-3.977c0.537-0.203,1.263,0.174,1.686,0.908L196.401,191.623z"/>
		<path fill="#EABF3B" d="M219.266,198.252h0.147c0.17,0,0.308-0.053,0.308-0.193c0-0.125-0.091-0.203-0.285-0.203
			c-0.081,0-0.139,0.006-0.17,0.014V198.252z M219.257,198.998h-0.308v-1.33c0.121-0.02,0.292-0.037,0.508-0.037
			c0.255,0,0.369,0.037,0.46,0.104c0.079,0.055,0.133,0.154,0.133,0.285c0,0.162-0.118,0.266-0.274,0.314v0.018
			c0.129,0.039,0.195,0.145,0.237,0.322c0.038,0.203,0.072,0.277,0.095,0.324h-0.321c-0.044-0.047-0.065-0.162-0.108-0.324
			c-0.024-0.139-0.107-0.203-0.275-0.203h-0.146V198.998z M219.457,197.25c-0.573,0-1.02,0.475-1.02,1.061
			c0,0.59,0.446,1.063,1.039,1.063c0.573,0.01,1.014-0.473,1.014-1.055c0-0.594-0.44-1.068-1.021-1.068H219.457z M219.477,196.979
			c0.753,0,1.355,0.584,1.355,1.332c0,0.746-0.602,1.336-1.363,1.336c-0.76,0-1.372-0.59-1.372-1.336
			c0-0.748,0.611-1.332,1.372-1.332H219.477z"/>
	</g>
	<g>
		<g>
			<path fill="#3E77B8" d="M129.3,224.344c-1.434-0.684-2.798-0.848-4.229-0.848c-4.542,0-6.366,2.67-6.366,5.344
				c0,2.506,1.917,3.682,4.641,3.682c1.624,0,3.109-0.281,4.301-0.789l-0.484,3.035c-1.092,0.309-2.991,0.551-4.523,0.551
				c-5.464,0-8.599-2.699-8.599-6.582c0-4.693,3.959-8.035,10.328-8.035c3.252,0,5.074,0.465,5.996,0.75L129.3,224.344z"/>
			<path fill="#3E77B8" d="M142.294,226.771c0,2.373-1.456,5.75-4.953,5.75c-2.36,0-3.16-1.48-3.16-3.258
				c0-2.391,1.458-5.768,4.955-5.768C141.493,223.496,142.294,224.994,142.294,226.771z M146.958,226.473
				c0-2.914-2.017-5.771-7.529-5.771c-6.539,0-9.912,3.504-9.912,8.861c0,2.898,2.015,5.756,7.531,5.756
				C143.583,235.318,146.958,231.814,146.958,226.473z"/>
			<path fill="#3E77B8" d="M150.483,220.945h4.59l-2.818,11.336h7.089l-0.698,2.795h-11.687L150.483,220.945z"/>
			<path fill="#3E77B8" d="M177.127,224.264c-1.476-0.545-2.934-0.768-4.907-0.768c-4.539,0-6.363,2.67-6.363,5.344
				c0,2.506,1.922,3.682,4.229,3.682c0.583,0,1.167-0.076,1.796-0.24l0.752-2.797h-2.695l0.654-2.666h7.117l-2.017,7.871
				c-1.699,0.428-4.44,0.629-5.898,0.629c-5.471,0-8.601-2.699-8.601-6.582c0-4.693,3.376-8.035,11.249-8.035
				c2.063,0,3.81,0.289,5.657,0.691L177.127,224.264z"/>
			<path fill="#3E77B8" d="M190.105,229.385h-4.374l3.596-5.523h0.049L190.105,229.385z M177.035,235.076h4.907l2.017-3.018h6.581
				l0.461,3.018h4.569l-2.769-14.131h-5.688L177.035,235.076z"/>
			<path fill="#3E77B8" d="M200.939,223.74h-4.225l0.727-2.795h13.052l-0.731,2.795h-4.228l-2.889,11.336h-4.596L200.939,223.74z"/>
			<path fill="#3E77B8" d="M211.825,220.945h11.929l-0.654,2.674h-7.457l-0.778,2.912h7.068l-0.703,2.674h-7.047l-0.827,3.193h7.751
				l-0.652,2.678h-12.269L211.825,220.945z"/>
			<path fill="#3E77B8" d="M237.291,223.619h1.332c1.215,0,2.333,0.279,2.333,1.639c0,1.682-1.628,2.205-3.427,2.205h-1.217
				L237.291,223.619z M229.854,235.076h4.521l1.257-4.938h2.31c4.078,0,7.534-1.787,7.534-5.311c0-3.559-3.748-3.883-7.462-3.883
				h-4.519L229.854,235.076z"/>
			<path fill="#3E77B8" d="M254.411,229.385h-4.37l3.599-5.523h0.049L254.411,229.385z M241.346,235.076h4.906l2.017-3.018h6.588
				l0.459,3.018h4.563l-2.767-14.131h-5.688L241.346,235.076z"/>
			<path fill="#3E77B8" d="M264.644,220.945h4.588l-2.818,11.336h7.1l-0.706,2.795H261.12L264.644,220.945z"/>
			<path fill="#3E77B8" d="M277.616,220.945h7.094l0.266,9.49h0.049l5.321-9.49h7.241l-3.602,14.131h-4.418l3.084-11.58h-0.044
				l-6.661,11.58h-4.271l-0.634-11.58h-0.049l-2.939,11.58h-4.135L277.616,220.945z"/>
			<path fill="#3E77B8" d="M310.337,226.771c0,2.373-1.455,5.75-4.955,5.75c-2.359,0-3.159-1.48-3.159-3.258
				c0-2.391,1.458-5.768,4.957-5.768C309.536,223.496,310.337,224.994,310.337,226.771z M315.005,226.473
				c0-2.914-2.018-5.771-7.531-5.771c-6.537,0-9.914,3.504-9.914,8.861c0,2.898,2.019,5.756,7.533,5.756
				C311.628,235.318,315.005,231.814,315.005,226.473z"/>
			<path fill="#3E77B8" d="M318.528,220.945h4.592l-2.818,11.336h7.094l-0.703,2.795h-11.688L318.528,220.945z"/>
			<path fill="#3E77B8" d="M331.745,220.945h4.564l-3.521,14.131h-4.567L331.745,220.945z"/>
			<path fill="#3E77B8" d="M345.614,235.076h-5.587l-2.208-14.131h4.543l1.141,10.686h0.049l6.556-10.686h4.886L345.614,235.076z"/>
			<path fill="#3E77B8" d="M356.33,220.945h11.929l-0.656,2.674h-7.463l-0.775,2.912h7.066l-0.699,2.674h-7.047l-0.824,3.193h7.748
				l-0.651,2.678h-12.269L356.33,220.945z"/>
		</g>
		<g>
			<path fill="#3E77B8" d="M98.868,213.734h-6.047l-1.974,8.41h6.784c0.928,0,1.687,0.756,1.687,1.689
				c0,0.928-0.758,1.688-1.687,1.688h-7.573l-3.714,15.855h8.852l1.726-7.346c0,0,10.227,1.092,11.878-8.635
				C110.752,213.924,98.868,213.734,98.868,213.734z"/>
			<path fill="#3E77B8" d="M87.622,225.521h-5.799c-0.927,0-1.685-0.76-1.685-1.688c0-0.934,0.758-1.689,1.685-1.689h6.579
				l1.924-8.41h-9.739c0,0-12.001,0.209-9.935,11.662c1.686,9.34,11.879,8.635,11.879,8.635h3.071L87.622,225.521z"/>
		</g>
	</g>
	<g>
		<path fill="#C3360E" d="M240.496,191.857c-0.352-0.338-0.786-0.611-1.304-0.611c-1.033,0-1.971,0.922-2.136,2.127
			c-0.173,1.262,0.488,2.143,1.594,2.143c0.472,0,1.019-0.219,1.425-0.594l-0.36,2.623c-0.637,0.34-1.308,0.494-1.957,0.494
			c-2.242,0-3.854-1.924-3.489-4.563c0.384-2.809,2.511-4.75,4.887-4.75c0.62,0,1.215,0.174,1.701,0.512L240.496,191.857z"/>
		<path fill="none" stroke="#FFFFFF" stroke-width="1.3333" d="M240.496,191.857c-0.352-0.338-0.786-0.611-1.304-0.611
			c-1.033,0-1.971,0.922-2.136,2.127c-0.173,1.262,0.488,2.143,1.594,2.143c0.472,0,1.019-0.219,1.425-0.594l-0.36,2.623
			c-0.637,0.34-1.308,0.494-1.957,0.494c-2.242,0-3.854-1.924-3.489-4.563c0.384-2.809,2.511-4.75,4.887-4.75
			c0.62,0,1.215,0.174,1.701,0.512L240.496,191.857z"/>
		<path fill="#C3360E" d="M245.422,182.461l-0.971,7.055h0.034c0.813-1.031,1.695-1.512,2.833-1.512
			c2.082,0,2.874,1.586,2.542,3.988l-0.797,5.795h-2.913l0.667-4.855c0.152-1.105,0.165-2.254-1.004-2.254
			c-1.152,0-1.678,1.148-1.83,2.254l-0.668,4.855h-2.912l2.104-15.326H245.422z"/>
		<path fill="none" stroke="#FFFFFF" stroke-width="1.3333" d="M245.422,182.461l-0.971,7.055h0.034
			c0.813-1.031,1.695-1.512,2.833-1.512c2.082,0,2.874,1.586,2.542,3.988l-0.797,5.795h-2.913l0.667-4.855
			c0.152-1.105,0.165-2.254-1.004-2.254c-1.152,0-1.678,1.148-1.83,2.254l-0.668,4.855h-2.912l2.104-15.326H245.422z"/>
		<path fill="#C3360E" d="M260.152,197.799h-3.198l0.158-1.152h-0.035c-0.704,1.031-1.876,1.496-2.93,1.496
			c-2.672,0-4.199-2.574-3.791-5.553c0.41-2.98,2.605-5.535,5.277-5.535c1.039,0,2.067,0.447,2.607,1.359l0.141-1.014h3.199
			L260.152,197.799z M253.659,192.607c-0.18,1.318,0.436,2.332,1.734,2.332c1.303,0,2.197-1.014,2.379-2.332
			c0.174-1.275-0.434-2.35-1.732-2.35C254.738,190.258,253.835,191.332,253.659,192.607"/>
		<path fill="none" stroke="#FFFFFF" stroke-width="1.3333" d="M260.152,197.799h-3.198l0.158-1.152h-0.035
			c-0.704,1.031-1.876,1.496-2.93,1.496c-2.672,0-4.199-2.574-3.791-5.553c0.41-2.98,2.605-5.535,5.277-5.535
			c1.039,0,2.067,0.447,2.607,1.359l0.141-1.014h3.199L260.152,197.799z M253.659,192.607c-0.18,1.318,0.436,2.332,1.734,2.332
			c1.303,0,2.197-1.014,2.379-2.332c0.174-1.275-0.434-2.35-1.732-2.35C254.738,190.258,253.835,191.332,253.659,192.607z"/>
		<path fill="#C3360E" d="M265.7,187.873h0.037c0.999-1.379,2.043-1.842,3.406-1.842c2.658,0,3.451,1.932,3.066,4.725l-0.967,7.031
			h-3.502l0.764-5.543c0.148-1.09,0.564-2.998-1.166-2.998c-1.422,0-1.996,1.219-2.19,2.641l-0.81,5.9h-3.501l1.562-11.381h3.502
			L265.7,187.873z"/>
		<path fill="none" stroke="#FFFFFF" stroke-width="1.3333" d="M265.7,187.873h0.037c0.999-1.379,2.043-1.842,3.406-1.842
			c2.658,0,3.451,1.932,3.066,4.725l-0.967,7.031h-3.502l0.764-5.543c0.148-1.09,0.564-2.998-1.166-2.998
			c-1.422,0-1.996,1.219-2.19,2.641l-0.81,5.9h-3.501l1.562-11.381h3.502L265.7,187.873z"/>
		<path fill="#C3360E" d="M284.729,196.508c-0.746,5.428-3.381,7.621-7.463,7.621c-2.549,0-5.753-1.518-5.636-4.879h4.406
			c0.046,0.445,0.282,0.77,0.6,0.969c0.319,0.199,0.714,0.301,1.083,0.301c2.115,0,2.746-1.598,3.029-3.662l0.082-0.596
			c-1.176,1.166-2.291,1.738-3.76,1.738c-3.24,0-5.076-2.836-4.569-6.523c0.513-3.738,3.24-6.926,6.634-6.926
			c1.295,0,2.413,0.5,3.018,1.768h0.042l0.187-1.346h3.929L284.729,196.508z M276.591,191.275c-0.225,1.621,0.534,2.865,2.135,2.865
			c1.598,0,2.697-1.244,2.92-2.865c0.215-1.57-0.533-2.893-2.131-2.893C277.915,188.383,276.804,189.705,276.591,191.275"/>
		<path fill="none" stroke="#FFFFFF" stroke-width="1.3333" d="M284.729,196.508c-0.746,5.428-3.381,7.621-7.463,7.621
			c-2.549,0-5.753-1.518-5.636-4.879h4.406c0.046,0.445,0.282,0.77,0.6,0.969c0.319,0.199,0.714,0.301,1.083,0.301
			c2.115,0,2.746-1.598,3.029-3.662l0.082-0.596c-1.176,1.166-2.291,1.738-3.76,1.738c-3.24,0-5.076-2.836-4.569-6.523
			c0.513-3.738,3.24-6.926,6.634-6.926c1.295,0,2.413,0.5,3.018,1.768h0.042l0.187-1.346h3.929L284.729,196.508z M276.591,191.275
			c-0.225,1.621,0.534,2.865,2.135,2.865c1.598,0,2.697-1.244,2.92-2.865c0.215-1.57-0.533-2.893-2.131-2.893
			C277.915,188.383,276.804,189.705,276.591,191.275z"/>
		<path fill="#C3360E" d="M301.032,190.412c-0.67,4.885-4.559,7.668-8.576,7.668c-3.992,0-7.146-2.758-6.469-7.668
			c0.674-4.916,4.561-7.695,8.578-7.695C298.585,182.717,301.708,185.496,301.032,190.412 M290.659,190.412
			c-0.248,1.826,0.605,3.227,2.408,3.227c1.801,0,3.041-1.4,3.291-3.227c0.242-1.77-0.6-3.26-2.4-3.26
			C292.155,187.152,290.901,188.643,290.659,190.412"/>
		<path fill="none" stroke="#FFFFFF" stroke-width="1.3333" d="M301.032,190.412c-0.67,4.885-4.559,7.668-8.576,7.668
			c-3.992,0-7.146-2.758-6.469-7.668c0.674-4.916,4.561-7.695,8.578-7.695C298.585,182.717,301.708,185.496,301.032,190.412z
			 M290.659,190.412c-0.248,1.826,0.605,3.227,2.408,3.227c1.801,0,3.041-1.4,3.291-3.227c0.242-1.77-0.6-3.26-2.4-3.26
			C292.155,187.152,290.901,188.643,290.659,190.412z"/>
		<path fill="#C13025" d="M240.496,191.857c-0.352-0.338-0.786-0.611-1.304-0.611c-1.033,0-1.971,0.922-2.136,2.127
			c-0.173,1.262,0.488,2.143,1.594,2.143c0.472,0,1.019-0.219,1.425-0.594l-0.36,2.623c-0.637,0.34-1.308,0.494-1.957,0.494
			c-2.242,0-3.854-1.924-3.489-4.563c0.384-2.809,2.511-4.75,4.887-4.75c0.62,0,1.215,0.174,1.701,0.512L240.496,191.857z"/>
		<path fill="#C13025" d="M245.422,182.461l-0.971,7.055h0.034c0.813-1.031,1.695-1.512,2.833-1.512
			c2.082,0,2.874,1.586,2.542,3.988l-0.797,5.795h-2.913l0.667-4.855c0.152-1.105,0.165-2.254-1.004-2.254
			c-1.152,0-1.678,1.148-1.83,2.254l-0.668,4.855h-2.912l2.104-15.326H245.422z"/>
		<path fill="#C13025" d="M260.152,197.799h-3.198l0.158-1.152h-0.035c-0.704,1.031-1.876,1.496-2.93,1.496
			c-2.672,0-4.199-2.574-3.791-5.553c0.41-2.98,2.605-5.535,5.277-5.535c1.039,0,2.067,0.447,2.607,1.359l0.141-1.014h3.199
			L260.152,197.799z M253.659,192.607c-0.18,1.318,0.436,2.332,1.734,2.332c1.303,0,2.197-1.014,2.379-2.332
			c0.174-1.275-0.434-2.35-1.732-2.35C254.738,190.258,253.835,191.332,253.659,192.607"/>
		<path fill="#C13025" d="M265.7,187.873h0.037c0.999-1.379,2.043-1.842,3.406-1.842c2.658,0,3.451,1.932,3.066,4.725l-0.967,7.031
			h-3.502l0.764-5.543c0.148-1.09,0.564-2.998-1.166-2.998c-1.422,0-1.996,1.219-2.19,2.641l-0.81,5.9h-3.501l1.562-11.381h3.502
			L265.7,187.873z"/>
		<path fill="#C13025" d="M284.729,196.508c-0.746,5.428-3.381,7.621-7.463,7.621c-2.549,0-5.753-1.518-5.636-4.879h4.406
			c0.046,0.445,0.282,0.77,0.6,0.969c0.319,0.199,0.714,0.301,1.083,0.301c2.115,0,2.746-1.598,3.029-3.662l0.082-0.596
			c-1.176,1.166-2.291,1.738-3.76,1.738c-3.24,0-5.076-2.836-4.569-6.523c0.513-3.738,3.24-6.926,6.634-6.926
			c1.295,0,2.413,0.5,3.018,1.768h0.042l0.187-1.346h3.929L284.729,196.508z M276.591,191.275c-0.225,1.621,0.534,2.865,2.135,2.865
			c1.598,0,2.697-1.244,2.92-2.865c0.215-1.57-0.533-2.893-2.131-2.893C277.915,188.383,276.804,189.705,276.591,191.275"/>
		<path fill="#C13025" d="M301.032,190.412c-0.67,4.885-4.559,7.668-8.576,7.668c-3.992,0-7.146-2.758-6.469-7.668
			c0.674-4.916,4.561-7.695,8.578-7.695C298.585,182.717,301.708,185.496,301.032,190.412 M290.659,190.412
			c-0.248,1.826,0.605,3.227,2.408,3.227c1.801,0,3.041-1.4,3.291-3.227c0.242-1.77-0.6-3.26-2.4-3.26
			C292.155,187.152,290.901,188.643,290.659,190.412"/>
		<path fill="#267D39" d="M308.361,183.418h0.058c1.488-1.877,3.114-2.674,5.003-2.674c2.117,0,3.813,0.994,4.562,3.236
			c1.295-2.113,3.424-3.236,5.426-3.236c3.723,0,4.623,2.809,4.088,6.705l-1.48,10.793h-5.209l1.109-8.088
			c0.242-1.75,0.693-4.623-1.512-4.623c-2.404,0-2.847,2.609-3.125,4.623l-1.109,8.088h-5.208l1.11-8.088
			c0.258-1.879,0.653-4.75-1.664-4.75c-2.32,0-2.715,2.871-2.973,4.75l-1.111,8.088h-5.207l2.324-16.934h5.209L308.361,183.418z"/>
		<path fill="#267D39" d="M348.322,198.824h-6.54l0.324-2.363h-0.072c-1.44,2.113-3.835,3.066-5.992,3.066
			c-5.461,0-8.584-5.264-7.748-11.354c0.838-6.094,5.327-11.316,10.789-11.316c2.121,0,4.225,0.914,5.332,2.777l0.285-2.07h6.539
			L348.322,198.824z M335.044,188.213c-0.369,2.695,0.891,4.766,3.551,4.766s4.489-2.07,4.859-4.766
			c0.357-2.611-0.885-4.807-3.543-4.807C337.25,183.406,335.403,185.602,335.044,188.213"/>
		<path fill="#267D39" d="M367.319,180.613c-1.077-0.729-2.649-1.213-3.953-1.213c-0.885,0-2.456,0.436-2.631,1.697
			c-0.232,1.695,2.131,1.941,3.149,2.182c3.46,0.824,5.884,2.762,5.251,7.369c-0.897,6.545-6.443,9.264-11.445,9.264
			c-3.068,0-5.957-1.023-8.311-2.863l3.62-6.156c1.383,1.26,3.816,2.523,5.708,2.523c0.967,0,2.47-0.535,2.656-1.895
			c0.267-1.939-2.115-2.035-4.413-2.766c-2.294-0.729-4.507-2.082-3.893-6.541c0.838-6.111,6.003-8.826,10.716-8.826
			c2.435,0,4.813,0.434,6.881,1.6L367.319,180.613z"/>
	</g>
</g>
<g>
</g>
<g>
</g>
<g>
</g>
<g>
</g>
<g>
</g>
<g>
</g>
</svg>
