<?xml version="1.0" encoding="utf-8"?>
<!-- Generator: Adobe Illustrator 16.0.0, SVG Export Plug-In . SVG Version: 6.00 Build 0)  -->
<!DOCTYPE svg PUBLIC "-//W3C//DTD SVG 1.1//EN" "http://www.w3.org/Graphics/SVG/1.1/DTD/svg11.dtd">
<svg version="1.1" id="Capa_1" xmlns="http://www.w3.org/2000/svg" xmlns:xlink="http://www.w3.org/1999/xlink" x="0px" y="0px"
	 width="479.06px" height="147.4px" viewBox="0 0 479.06 147.4" enable-background="new 0 0 479.06 147.4" xml:space="preserve">
<g>
	<path fill="#8ABBD9" d="M63.146,18.332c-5.333-7.207-15.416-11.24-25.014-11.24c-16.288,0-29.959,12.527-29.959,26.428
		c0,14.843,14.155,26.94,30.444,26.94c9.694,0,19.196-4.633,24.819-11.583h7.95c-6.204,10.554-19.293,17.675-32.77,17.675
		C17.579,66.552,1,52.224,1,33.52C1,15.5,17.676,1,38.037,1c7.271,0,14.543,1.716,20.65,5.32c4.558,2.574,10.472,7.379,12.41,12.012
		H63.146z"/>
	<path fill="#8ABBD9" d="M86.418,2.03v38.524c0,4.547,0.484,9.352,3.296,13.299c3.006,4.204,8.338,6.605,13.962,6.605
		c5.042,0,10.18-2.059,13.186-5.749c3.49-4.118,3.976-9.181,3.976-14.156V2.03h7.175v38.524c0,6.435-0.679,12.611-5.333,17.932
		c-4.46,5.234-11.635,8.065-19.003,8.065c-7.175,0-14.156-2.66-18.712-7.551c-4.945-5.404-5.72-11.754-5.72-18.446V2.03H86.418z"/>
	<path fill="#8ABBD9" d="M139.066,2.03h7.175v63.406h-7.175V2.03z"/>
	<path fill="#8ABBD9" d="M157.294,2.03h19.294c10.277,0.086,19.875,1.544,28.117,7.379c8.144,5.92,13.089,15.015,13.089,24.195
		c0,9.095-4.363,17.589-11.731,23.595c-8.531,6.864-17.937,8.237-28.989,8.237h-19.778L157.294,2.03L157.294,2.03z M173.68,59.688
		c9.501-0.086,17.938-0.257,25.887-5.834c7.176-4.978,10.956-12.185,11.054-20.249c-0.098-8.237-3.781-14.929-11.15-20.077
		c-7.853-5.405-16.288-5.834-25.79-5.749h-9.211v51.909H173.68z"/>
	<path fill="#8ABBD9" d="M225.746,2.03h39.169v5.749H232.92v22.823h30.929v5.749H232.92v23.338h31.995v5.749h-39.169V2.03z"/>
	<path fill="#8ABBD9" d="M274.029,2.03h11.054l26.178,53.968L337.342,2.03h11.053v63.406h-7.175V9.065l-26.953,56.371h-6.106
		L281.205,9.065v56.371h-7.176V2.03z"/>
	<path fill="#8ABBD9" d="M432.067,33.52c0,18.446-17.161,33.033-37.908,33.033c-20.069,0-37.813-14.329-37.813-32.519
		C356.347,15.586,373.411,1,394.159,1C414.423,1,432.067,15.329,432.067,33.52z M394.257,7.006
		c-16.871,0.085-30.735,12.099-30.735,27.027c0,14.672,14.446,26.426,30.735,26.426c16.868,0,30.637-11.926,30.637-26.94
		c0-14.672-14.252-26.428-30.637-26.428V7.006L394.257,7.006z"/>
	<path fill="#8ABBD9" d="M442.443,47.675c0.193,6.95,6.302,12.784,14.351,12.784c8.144,0,14.834-5.233,14.834-12.526
		c0-3.433-1.939-6.864-4.945-9.01c-3.297-2.401-6.98-3.26-11.053-4.203c-4.46-1.03-9.018-2.061-12.604-4.806
		c-3.976-3.003-6.012-7.293-6.012-11.84C437.014,7.864,446.127,1,457.373,1c10.858,0,19.778,7.465,19.684,17.16h-7.467
		c-0.484-6.435-5.721-11.068-13.088-11.068c-6.98,0-12.313,5.063-12.313,11.068c0,7.636,7.175,9.438,14.155,11.154
		c5.139,1.287,9.599,2.06,13.768,5.406c4.267,3.26,6.689,8.236,6.689,13.299c0,10.468-10.181,18.533-21.814,18.533
		c-12.217,0-22.299-7.809-22.203-18.876h7.66V47.675z"/>
	<path fill="#8ABBD9" d="M4.152,81.271h39.441v5.789H11.378v22.98h31.143v5.789H11.378v23.5h32.216v5.789H4.152V81.271z"/>
	<path fill="#8ABBD9" d="M60.095,81.271h7.225v58.058h29.873v5.789H60.095V81.271z"/>
	<path fill="#3D70AB" d="M169.328,81.271h12.018l34.932,63.846h-16.96l-8.984-16.501h-29.429l-9.21,16.501h-16.96L169.328,81.271z
		 M184.267,117.125l-8.873-19.353l-8.874,19.353H184.267z"/>
	<path fill="#3D70AB" d="M290.519,100.021c-4.94-5.271-13.478-8.467-21.789-8.467c-7.076,0-13.928,1.986-19.207,5.528
		c-5.729,3.889-9.547,10.194-9.547,16.069c0,5.355,3.146,11.059,7.976,14.86c5.614,4.578,13.479,7.171,21.452,7.171
		c9.771,0,19.769-4.665,24.262-11.491h-34.706v-11.146h54.138v1.383c0,18.66-20.442,32.743-44.142,32.743
		c-23.925,0-44.367-14.342-44.367-33.089c0-18.834,20.33-33.521,44.142-33.521c16.849,0,33.92,7.688,40.21,19.958H290.519z"/>
	<path fill="#3D70AB" d="M342.747,81.271v39.829c0,2.938-0.226,5.961,1.571,8.64c2.246,3.283,6.179,5.443,11.009,5.443
		c4.043,0,8.198-1.729,10.444-4.493c2.358-2.938,2.246-6.22,2.246-9.59V81.271h15.39v39.829c0,6.307-0.675,12.269-6.066,17.278
		c-5.391,4.925-13.59,8.294-22.014,8.294c-7.863,0-16.063-3.282-21.229-7.774c-6.066-5.271-6.74-11.146-6.74-17.798V81.271H342.747z
		"/>
	<path fill="#3D70AB" d="M431.142,81.271h12.018l34.933,63.846h-16.96l-8.985-16.501h-29.428l-9.211,16.501h-16.96L431.142,81.271z
		 M446.079,117.125l-8.873-19.353l-8.874,19.353H446.079z"/>
</g>
<g>
</g>
<g>
</g>
<g>
</g>
<g>
</g>
<g>
</g>
<g>
</g>
</svg>
