<?xml version="1.0" encoding="utf-8"?>
<!-- Generator: Adobe Illustrator 16.0.0, SVG Export Plug-In . SVG Version: 6.00 Build 0)  -->
<!DOCTYPE svg PUBLIC "-//W3C//DTD SVG 1.1//EN" "http://www.w3.org/Graphics/SVG/1.1/DTD/svg11.dtd">
<svg version="1.1" id="Capa_1" xmlns="http://www.w3.org/2000/svg" xmlns:xlink="http://www.w3.org/1999/xlink" x="0px" y="0px"
	 width="477.64px" height="64.63px" viewBox="0 0 477.64 64.63" enable-background="new 0 0 477.64 64.63" xml:space="preserve">
<g>
	<g>
		<path fill="#8ABBD9" d="M3.292,5.953v2.914c1.41-2.201,4.558-3.285,7.148-3.285c2.622,0,5.05,0.961,7.345,3.285
			c1.082,0.933,2.131,3.164,2.131,5.646c0,5.053-4.492,8.805-9.706,8.805c-2.656,0-5.607-1.209-6.788-3.564v9.115H0.997V5.954
			L3.292,5.953L3.292,5.953z M17.491,14.48c0-3.689-3.148-6.697-7.05-6.697c-3.936,0-7.182,2.76-7.182,6.512
			c0,1.859,0.492,3.41,1.902,4.742c1.344,1.334,3.181,2.078,5.115,2.078C14.277,21.115,17.491,18.293,17.491,14.48z"/>
		<path fill="#8ABBD9" d="M28.273,5.953h2.295v2.449c0.95-2.016,3.017-2.76,5.214-2.82v2.265c-1.313,0.092-2.23,0.371-3.247,1.178
			c-1.672,1.332-1.836,2.479-1.836,4.402v9.487h-2.426V5.953z"/>
		<path fill="#8ABBD9" d="M44.668,15.256c0.131,3.226,3.443,5.859,6.755,5.859c2.656,0,5.345-1.395,6.427-3.721h2.525
			c-1.246,3.41-4.918,5.922-8.723,5.922c-5.247,0-9.411-3.906-9.411-8.867c0-4.93,4.131-8.867,9.345-8.867
			c2.82,0,5.411,1.209,7.214,3.285c1.672,1.955,2.033,3.939,2.1,6.389H44.668z M58.473,13.179c-0.623-3.009-3.542-5.396-6.854-5.396
			c-3.377,0-6.361,2.264-6.952,5.396H58.473z"/>
		<path fill="#8ABBD9" d="M69.158,5.953h2.295v2.201c0.885-1.768,2.787-2.572,4.788-2.572c2.36,0,4.36,0.931,5.804,2.572
			c0.164,0.217,0.295,0.436,0.459,0.652c0.099-0.218,0.23-0.404,0.361-0.652c1.246-1.643,3.573-2.572,5.673-2.572
			c1.935,0,3.804,0.898,5.575,2.572c1.442,1.365,1.672,3.102,1.672,5.086v9.674h-2.427v-9.457c0-1.239-0.099-2.604-0.886-3.657
			c-0.983-1.304-2.394-2.017-4.065-2.017c-1.542,0-3.083,0.744-3.969,1.922c-0.786,1.056-0.754,2.513-0.754,3.752v9.457h-2.427
			v-9.705c0-1.271-0.064-2.264-0.853-3.379c-0.918-1.239-2.427-2.047-4.033-2.047c-1.508,0-3.018,0.619-3.936,1.799
			c-0.818,1.115-0.853,2.324-0.853,3.627v9.705h-2.426V5.953z"/>
		<path fill="#8ABBD9" d="M104.826,0h2.426v3.906h-2.426V0z M104.826,5.953h2.426v16.961h-2.426V5.953z"/>
		<path fill="#8ABBD9" d="M134.565,22.914h-2.328v-3.192c-1.377,2.387-4.133,3.596-6.952,3.596c-2.689,0-5.607-1.115-7.903-3.596
			c-0.656-0.685-1.771-2.822-1.771-5.396c0-2.262,1.213-4.588,1.868-5.146c2.723-2.761,5.247-3.597,7.739-3.597
			c2.82,0,5.673,1.179,7.019,3.597V5.954h2.328V22.914z M118.038,14.513c0,3.721,3.41,6.604,7.247,6.604
			c3.738,0,6.952-3.039,6.952-6.572c0-3.752-3.018-6.76-7.019-6.76C121.284,7.783,118.038,10.761,118.038,14.513z"/>
		<path fill="#8ABBD9" d="M143.61,5.953h2.295v2.449c1.377-1.828,3.213-2.82,5.573-2.82c2.395,0,4.756,0.992,6.362,2.82
			c1.377,1.645,1.639,3.441,1.639,5.582v8.93h-2.426v-8.93c0-1.457-0.131-2.822-1.049-4.031c-1.082-1.426-2.787-2.17-4.624-2.17
			c-1.672,0-3.41,0.775-4.394,2.076c-0.951,1.211-0.918,2.699-0.951,4.125v8.93h-2.426V5.953L143.61,5.953z"/>
		<path fill="#8ABBD9" d="M184.589,8.031h-3.738V5.953h3.738V0h2.426v5.953h4.165v2.078h-4.165v14.883h-2.426V8.031z"/>
		<path fill="#8ABBD9" d="M214.359,22.914h-2.296v-2.637c-1.18,2.172-3.442,3.039-5.935,3.039c-2.295,0-4.263-0.775-6.296-3.039
			c-1.082-1.084-1.279-3.131-1.279-5.363V5.953h2.426v8.961c0,1.304,0.066,2.605,0.787,3.752c0.984,1.611,2.723,2.449,4.689,2.449
			c1.738,0,3.345-0.744,4.394-2.078c0.918-1.209,1.083-2.666,1.083-4.123V5.953h2.427V22.914L214.359,22.914z"/>
		<path fill="#8ABBD9" d="M255.241,17.953c-1.607,3.316-4.854,5.363-8.724,5.363c-5.345,0-9.804-3.721-9.804-8.898
			c0-5.022,4.525-8.836,9.707-8.836c3.803,0,7.476,2.107,8.854,5.519h-2.724c-1.246-2.015-3.639-3.316-6.099-3.316
			c-3.968,0-7.313,2.791-7.313,6.604c0,3.752,3.115,6.729,7.116,6.729c2.787,0,4.722-1.086,6.295-3.162h2.69V17.953z"/>
		<path fill="#8ABBD9" d="M281.566,14.324c0,4.838-4.133,8.992-9.313,8.992c-5.082,0-9.41-3.906-9.41-8.773
			c0-4.932,4.164-8.961,9.41-8.961C277.237,5.582,281.566,9.611,281.566,14.324z M265.268,14.543c0,3.627,3.148,6.572,6.984,6.572
			c4.001,0,6.887-3.1,6.887-6.791c0-1.859-0.655-3.379-2.099-4.682c-1.278-1.146-3.018-1.859-4.788-1.859
			C268.286,7.783,265.268,10.853,265.268,14.543z"/>
		<path fill="#8ABBD9" d="M289.923,5.953h2.295v2.201c0.885-1.768,2.787-2.572,4.787-2.572c2.361,0,4.361,0.931,5.805,2.572
			c0.164,0.217,0.295,0.436,0.459,0.652c0.099-0.218,0.229-0.404,0.36-0.652c1.246-1.643,3.574-2.572,5.673-2.572
			c1.936,0,3.804,0.898,5.574,2.572c1.443,1.365,1.673,3.102,1.673,5.086v9.674h-2.427v-9.457c0-1.239-0.098-2.604-0.885-3.657
			c-0.984-1.304-2.396-2.017-4.066-2.017c-1.541,0-3.082,0.744-3.968,1.922c-0.787,1.056-0.755,2.513-0.755,3.752v9.457h-2.427
			v-9.705c0-1.271-0.065-2.264-0.854-3.379c-0.918-1.239-2.426-2.047-4.033-2.047c-1.508,0-3.016,0.619-3.935,1.799
			c-0.819,1.115-0.854,2.324-0.854,3.627v9.705h-2.426V5.953H289.923z"/>
		<path fill="#8ABBD9" d="M327.887,5.953v2.914c1.409-2.201,4.559-3.285,7.148-3.285c2.623,0,5.05,0.961,7.345,3.285
			c1.082,0.933,2.132,3.164,2.132,5.646c0,5.053-4.492,8.805-9.706,8.805c-2.655,0-5.606-1.209-6.788-3.564v9.115h-2.427V5.954
			L327.887,5.953L327.887,5.953z M342.085,14.48c0-3.689-3.148-6.697-7.05-6.697c-3.936,0-7.182,2.76-7.182,6.512
			c0,1.859,0.491,3.41,1.901,4.742c1.345,1.334,3.181,2.078,5.115,2.078C338.872,21.115,342.085,18.293,342.085,14.48z"/>
		<path fill="#8ABBD9" d="M352.867,5.953h2.296v2.449c0.95-2.016,3.016-2.76,5.213-2.82v2.265c-1.313,0.092-2.229,0.371-3.246,1.178
			c-1.672,1.332-1.836,2.479-1.836,4.402v9.487h-2.427V5.953z"/>
		<path fill="#8ABBD9" d="M385.559,14.324c0,4.838-4.132,8.992-9.313,8.992c-5.083,0-9.411-3.906-9.411-8.773
			c0-4.932,4.164-8.961,9.411-8.961C381.23,5.582,385.559,9.611,385.559,14.324z M369.262,14.543c0,3.627,3.147,6.572,6.984,6.572
			c4,0,6.886-3.1,6.886-6.791c0-1.859-0.655-3.379-2.099-4.682c-1.279-1.146-3.018-1.859-4.787-1.859
			C372.278,7.783,369.262,10.853,369.262,14.543z"/>
		<path fill="#8ABBD9" d="M393.916,5.953h2.296v2.201c0.885-1.768,2.787-2.572,4.787-2.572c2.36,0,4.36,0.931,5.804,2.572
			c0.164,0.217,0.296,0.436,0.459,0.652c0.099-0.218,0.229-0.404,0.36-0.652c1.245-1.643,3.573-2.572,5.674-2.572
			c1.934,0,3.803,0.898,5.574,2.572c1.442,1.365,1.672,3.102,1.672,5.086v9.674h-2.427v-9.457c0-1.239-0.099-2.604-0.886-3.657
			c-0.982-1.304-2.394-2.017-4.064-2.017c-1.542,0-3.083,0.744-3.97,1.922c-0.786,1.056-0.754,2.513-0.754,3.752v9.457h-2.426
			v-9.705c0-1.271-0.066-2.264-0.854-3.379c-0.918-1.239-2.427-2.047-4.033-2.047c-1.508,0-3.018,0.619-3.937,1.799
			c-0.817,1.115-0.852,2.324-0.852,3.627v9.705h-2.427V5.953H393.916z"/>
		<path fill="#8ABBD9" d="M429.585,0h2.426v3.906h-2.426V0z M429.585,5.953h2.426v16.961h-2.426V5.953z"/>
		<path fill="#8ABBD9" d="M442.009,17.922c-0.064,1.736,1.41,3.193,3.247,3.193c1.737,0,3.146-1.146,3.146-2.822
			c0-2.045-1.705-2.789-3.476-3.254c-1.147-0.342-2.36-0.684-3.246-1.487c-0.951-0.808-1.442-2.017-1.442-3.226
			c0-2.76,2.36-4.744,5.182-4.744c2.688,0,4.951,2.107,4.951,4.588h-2.428c0-1.487-1.213-2.387-2.787-2.387
			c-1.377,0-2.491,1.055-2.491,2.355c0,1.86,1.573,2.356,3.147,2.821c2.688,0.808,5.018,1.892,5.018,4.961
			c0,3.193-2.459,5.396-5.805,5.396c-3.05,0-5.606-2.512-5.442-5.396L442.009,17.922L442.009,17.922z"/>
		<path fill="#8ABBD9" d="M476.73,14.324c0,4.838-4.133,8.992-9.313,8.992c-5.083,0-9.411-3.906-9.411-8.773
			c0-4.932,4.164-8.961,9.411-8.961C472.401,5.582,476.73,9.611,476.73,14.324z M460.433,14.543c0,3.627,3.147,6.572,6.984,6.572
			c4.001,0,6.886-3.1,6.886-6.791c0-1.859-0.655-3.379-2.098-4.682c-1.279-1.146-3.019-1.859-4.788-1.859
			C463.449,7.783,460.433,10.853,460.433,14.543z"/>
		<path fill="#8ABBD9" d="M18.527,52.468c-1.607,3.315-4.854,5.362-8.724,5.362C4.459,57.83,0,54.109,0,48.933
			c0-5.023,4.525-8.836,9.706-8.836c3.804,0,7.476,2.106,8.854,5.518h-2.722c-1.246-2.014-3.64-3.316-6.099-3.316
			c-3.969,0-7.313,2.791-7.313,6.604c0,3.752,3.115,6.729,7.116,6.729c2.787,0,4.722-1.086,6.296-3.162h2.689V52.468z"/>
		<path fill="#8ABBD9" d="M43.541,48.839c0,4.838-4.132,8.991-9.313,8.991c-5.083,0-9.41-3.905-9.41-8.772
			c0-4.933,4.163-8.961,9.41-8.961C39.212,40.097,43.541,44.125,43.541,48.839z M27.243,49.058c0,3.627,3.147,6.572,6.983,6.572
			c4,0,6.887-3.101,6.887-6.791c0-1.859-0.656-3.38-2.1-4.683c-1.278-1.146-3.017-1.859-4.788-1.859
			C30.26,42.297,27.243,45.365,27.243,49.058z"/>
		<path fill="#8ABBD9" d="M50.585,40.468h2.295v2.448c1.377-1.828,3.213-2.819,5.574-2.819c2.394,0,4.755,0.991,6.362,2.819
			c1.377,1.646,1.639,3.441,1.639,5.583v8.93h-2.426v-8.93c0-1.458-0.131-2.822-1.05-4.031c-1.081-1.427-2.786-2.171-4.624-2.171
			c-1.672,0-3.409,0.775-4.394,2.076c-0.951,1.211-0.918,2.699-0.951,4.125v8.931h-2.426V40.468z"/>
		<path fill="#8ABBD9" d="M88.614,49.77c0.131,3.225,3.442,5.859,6.755,5.859c2.656,0,5.345-1.396,6.427-3.722h2.525
			c-1.246,3.41-4.918,5.922-8.724,5.922c-5.247,0-9.411-3.905-9.411-8.866c0-4.931,4.132-8.867,9.346-8.867
			c2.819,0,5.411,1.209,7.214,3.284c1.672,1.955,2.033,3.939,2.099,6.39H88.614z M102.419,47.691
			c-0.623-3.008-3.542-5.396-6.854-5.396c-3.378,0-6.361,2.265-6.952,5.396H102.419z"/>
		<path fill="#8ABBD9" d="M111.792,34.515h2.426v22.914h-2.426V34.515z"/>
		<path fill="#8ABBD9" d="M152.48,52.468c-1.606,3.315-4.853,5.362-8.723,5.362c-5.345,0-9.804-3.721-9.804-8.897
			c0-5.023,4.524-8.836,9.706-8.836c3.804,0,7.476,2.106,8.854,5.518h-2.722c-1.246-2.014-3.64-3.316-6.099-3.316
			c-3.969,0-7.313,2.791-7.313,6.604c0,3.752,3.115,6.729,7.116,6.729c2.787,0,4.722-1.086,6.296-3.162h2.688V52.468z"/>
		<path fill="#8ABBD9" d="M175.265,57.429h-2.295v-2.637c-1.18,2.172-3.442,3.038-5.935,3.038c-2.295,0-4.264-0.774-6.296-3.038
			c-1.082-1.084-1.279-3.132-1.279-5.363v-8.961h2.426v8.961c0,1.303,0.066,2.604,0.787,3.752c0.984,1.611,2.722,2.449,4.689,2.449
			c1.737,0,3.344-0.744,4.394-2.078c0.918-1.209,1.083-2.666,1.083-4.123v-8.961h2.426V57.429L175.265,57.429z"/>
		<path fill="#8ABBD9" d="M182.998,34.515h2.426v3.905h-2.426V34.515z M182.998,40.468h2.426v16.961h-2.426V40.468z"/>
		<path fill="#8ABBD9" d="M211.491,57.429h-2.295v-3.103c-1.804,2.39-4.131,3.504-7.247,3.504c-2.591,0-4.984-0.991-7.509-3.504
			c-0.886-0.713-1.968-2.944-1.968-5.426c0-5.053,4.428-8.805,9.641-8.805c2.688,0,5.477,1.114,6.952,3.315v-8.896h2.426V57.429z
			 M201.949,42.297c-3.805,0-7.05,2.914-7.05,6.572c0,3.722,3.181,6.761,7.115,6.761c3.936,0,7.116-3.039,7.116-6.761
			C209.13,45.117,205.851,42.297,201.949,42.297z"/>
		<path fill="#8ABBD9" d="M237.489,57.429h-2.328v-3.193c-1.377,2.388-4.132,3.597-6.952,3.597c-2.689,0-5.607-1.115-7.903-3.597
			c-0.655-0.684-1.771-2.821-1.771-5.396c0-2.263,1.213-4.589,1.869-5.146c2.722-2.76,5.247-3.596,7.738-3.596
			c2.82,0,5.674,1.178,7.019,3.596v-3.225h2.328V57.429z M220.962,49.025c0,3.721,3.41,6.604,7.247,6.604
			c3.738,0,6.952-3.039,6.952-6.572c0-3.752-3.018-6.761-7.019-6.761C224.209,42.297,220.962,45.273,220.962,49.025z"/>
		<path fill="#8ABBD9" d="M263.552,57.429h-2.295v-3.103c-1.803,2.39-4.131,3.504-7.246,3.504c-2.592,0-4.983-0.991-7.51-3.504
			c-0.885-0.713-1.967-2.944-1.967-5.426c0-5.053,4.426-8.805,9.641-8.805c2.688,0,5.477,1.114,6.951,3.315v-8.896h2.426V57.429
			L263.552,57.429z M254.011,42.297c-3.805,0-7.051,2.914-7.051,6.572c0,3.722,3.181,6.761,7.115,6.761
			c3.936,0,7.116-3.039,7.116-6.761C261.191,45.117,257.912,42.297,254.011,42.297z"/>
		<path fill="#8ABBD9" d="M289.321,48.839c0,4.838-4.134,8.991-9.313,8.991c-5.083,0-9.411-3.905-9.411-8.772
			c0-4.933,4.164-8.961,9.411-8.961C284.992,40.097,289.321,44.125,289.321,48.839z M273.022,49.058
			c0,3.627,3.147,6.572,6.984,6.572c4.001,0,6.886-3.101,6.886-6.791c0-1.859-0.654-3.38-2.098-4.683
			c-1.279-1.146-3.018-1.859-4.788-1.859C276.04,42.297,273.022,45.365,273.022,49.058z"/>
		<path fill="#8ABBD9" d="M327.383,57.429h-2.296v-3.103c-1.803,2.39-4.131,3.504-7.246,3.504c-2.591,0-4.983-0.991-7.51-3.504
			c-0.885-0.713-1.967-2.944-1.967-5.426c0-5.053,4.427-8.805,9.641-8.805c2.688,0,5.477,1.114,6.951,3.315v-8.896h2.427V57.429
			L327.383,57.429z M317.841,42.297c-3.804,0-7.051,2.914-7.051,6.572c0,3.722,3.182,6.761,7.116,6.761
			c3.934,0,7.115-3.039,7.115-6.761C325.021,45.117,321.743,42.297,317.841,42.297z"/>
		<path fill="#8ABBD9" d="M336.854,49.77c0.132,3.225,3.443,5.859,6.755,5.859c2.655,0,5.346-1.396,6.428-3.722h2.524
			c-1.245,3.41-4.919,5.922-8.723,5.922c-5.247,0-9.411-3.905-9.411-8.866c0-4.931,4.132-8.867,9.345-8.867
			c2.82,0,5.411,1.209,7.216,3.284c1.672,1.955,2.032,3.939,2.098,6.39H336.854z M350.659,47.691
			c-0.623-3.008-3.541-5.396-6.854-5.396c-3.377,0-6.36,2.265-6.951,5.396H350.659z"/>
		<path fill="#8ABBD9" d="M360.032,34.515h2.426v22.914h-2.426V34.515z"/>
		<path fill="#8ABBD9" d="M401.146,57.429h-2.328v-3.193c-1.378,2.388-4.132,3.597-6.951,3.597c-2.688,0-5.607-1.115-7.902-3.597
			c-0.656-0.684-1.771-2.821-1.771-5.396c0-2.263,1.213-4.589,1.867-5.146c2.724-2.76,5.247-3.596,7.739-3.596
			c2.82,0,5.673,1.178,7.018,3.596v-3.225h2.328V57.429L401.146,57.429z M384.62,49.025c0,3.721,3.41,6.604,7.246,6.604
			c3.737,0,6.951-3.039,6.951-6.572c0-3.752-3.017-6.761-7.018-6.761C387.866,42.297,384.62,45.273,384.62,49.025z"/>
		<path fill="#8ABBD9" d="M426.815,55.011c0,2.635-0.099,4.246-2.099,6.293c-1.738,1.799-4.525,2.76-7.082,2.76
			c-3.937,0-7.805-2.512-8.789-6.231h2.361c1.41,2.512,3.541,4.03,6.623,4.03c2.296,0,4.688-0.992,5.869-2.944
			c0.787-1.334,0.787-2.418,0.787-3.906v-0.933c-1.146,2.544-4.229,3.753-7.017,3.753c-2.361,0-4.756-0.962-6.461-2.48
			c-1.901-1.705-2.819-3.875-2.819-6.355c0-2.389,1.05-4.559,1.705-5.24c2.36-2.821,4.886-3.657,7.443-3.657
			c2.853,0,5.771,1.209,7.147,3.657V40.47h2.328v14.541H426.815z M410.618,48.777c0,3.752,2.786,6.853,6.886,6.853
			c1.9,0,3.574-0.591,4.919-1.922c1.213-1.21,2.033-3.07,2.033-4.744c0-3.814-3.183-6.667-7.183-6.667
			C413.536,42.297,410.618,45.306,410.618,48.777z"/>
		<path fill="#8ABBD9" d="M450.354,57.429h-2.295v-2.637c-1.18,2.172-3.443,3.038-5.936,3.038c-2.295,0-4.263-0.774-6.295-3.038
			c-1.082-1.084-1.279-3.132-1.279-5.363v-8.961h2.426v8.961c0,1.303,0.066,2.604,0.787,3.752c0.984,1.611,2.723,2.449,4.689,2.449
			c1.737,0,3.345-0.744,4.395-2.078c0.918-1.209,1.082-2.666,1.082-4.123v-8.961h2.426V57.429L450.354,57.429z"/>
		<path fill="#8ABBD9" d="M476.352,57.429h-2.328v-3.193c-1.377,2.388-4.132,3.597-6.951,3.597c-2.688,0-5.606-1.115-7.902-3.597
			c-0.655-0.684-1.771-2.821-1.771-5.396c0-2.263,1.213-4.589,1.869-5.146c2.721-2.76,5.246-3.596,7.738-3.596
			c2.82,0,5.673,1.178,7.018,3.596v-3.225h2.328V57.429L476.352,57.429z M459.824,49.025c0,3.721,3.41,6.604,7.248,6.604
			c3.737,0,6.951-3.039,6.951-6.572c0-3.752-3.018-6.761-7.018-6.761C463.071,42.297,459.824,45.273,459.824,49.025z"/>
	</g>
</g>
<g>
</g>
<g>
</g>
<g>
</g>
<g>
</g>
<g>
</g>
<g>
</g>
</svg>
