<?xml version="1.0" encoding="utf-8"?>
<!-- Generator: Adobe Illustrator 16.0.0, SVG Export Plug-In . SVG Version: 6.00 Build 0)  -->
<!DOCTYPE svg PUBLIC "-//W3C//DTD SVG 1.1//EN" "http://www.w3.org/Graphics/SVG/1.1/DTD/svg11.dtd">
<svg version="1.1" id="Capa_1" xmlns="http://www.w3.org/2000/svg" xmlns:xlink="http://www.w3.org/1999/xlink" x="0px" y="0px"
	 width="152px" height="36px" viewBox="0 0 152 36" enable-background="new 0 0 152 36" xml:space="preserve">
<g>
	<path fill="#3E77B6" d="M84.086,22.814c0,0.288-0.025,0.586-0.109,0.85c-0.326,1.085-1.449,2.002-2.855,2.002
		c-1.173,0-2.105-0.665-2.105-2.074c0-2.152,2.373-2.746,5.07-2.732V22.814z M88.316,19.066c0-3.552-1.514-6.675-6.643-6.675
		c-2.632,0-4.721,0.742-5.86,1.398l0.833,2.852c1.043-0.657,2.703-1.202,4.273-1.202c2.603-0.004,3.028,1.471,3.028,2.418v0.226
		c-5.671-0.007-9.253,1.954-9.253,5.951c0,2.442,1.826,4.731,4.998,4.731c1.949,0,3.582-0.779,4.561-2.024h0.092
		c0,0,0.648,2.706,4.221,1.671c-0.189-1.127-0.25-2.328-0.25-3.777V19.066z"/>
	<path fill="#3E77B6" d="M0,7.558c0,0,3.703,15.171,4.293,17.636c0.691,2.873,1.933,3.932,5.52,3.219l2.312-9.409
		c0.589-2.334,0.98-4.001,1.357-6.379h0.067c0.264,2.402,0.641,4.048,1.123,6.388c0,0,0.941,4.269,1.423,6.513
		c0.483,2.245,1.83,3.66,5.341,2.888l5.511-20.854h-4.451l-1.88,9.015c-0.506,2.625-0.966,4.675-1.318,7.074h-0.064
		c-0.32-2.377-0.73-4.347-1.247-6.901l-1.958-9.188h-4.637l-2.094,8.955c-0.592,2.721-1.149,4.92-1.503,7.24H7.733
		c-0.362-2.187-0.845-4.945-1.366-7.578c0,0-1.246-6.409-1.682-8.617H0z"/>
	<path fill="#3E77B6" d="M35.359,22.814c0,0.288-0.023,0.586-0.104,0.85c-0.328,1.085-1.453,2.002-2.859,2.002
		c-1.174,0-2.105-0.665-2.105-2.074c0-2.152,2.371-2.746,5.068-2.732V22.814z M39.59,19.066c0-3.552-1.517-6.675-6.642-6.675
		c-2.631,0-4.722,0.742-5.86,1.398l0.831,2.852c1.045-0.657,2.705-1.202,4.276-1.202c2.602-0.004,3.028,1.471,3.028,2.418v0.226
		c-5.671-0.007-9.254,1.954-9.254,5.951c0,2.442,1.825,4.731,4.995,4.731c1.952,0,3.583-0.779,4.563-2.024h0.096
		c0,0,0.649,2.706,4.216,1.671c-0.189-1.127-0.249-2.328-0.249-3.777V19.066z"/>
	<polygon fill="#3E77B6" points="46.651,23.982 46.651,7.558 42.417,7.558 42.417,28.412 46.651,28.412 	"/>
	<path fill="#3E77B6" d="M102.077,7.558v15.386c0,2.116,0.401,3.604,1.255,4.515c0.744,0.791,1.975,1.308,3.449,1.308
		c1.252,0,2.482-0.239,3.066-0.453l-0.055-3.312c-0.434,0.106-0.934,0.192-1.609,0.192c-1.442,0-1.928-0.925-1.928-2.829v-5.886
		h3.688v-3.989h-3.688V7.558H102.077z"/>
	<path fill="#3E77B6" d="M91.141,12.746v15.666h4.371v-8.021c0-0.437,0.029-0.811,0.096-1.157c0.321-1.682,1.607-2.755,3.453-2.755
		c0.508,0,0.869,0.055,1.264,0.11v-4.103c-0.33-0.063-0.553-0.095-0.963-0.095c-1.635,0-3.487,1.052-4.266,3.309h-0.121v-2.954
		H91.141z"/>
	<path fill="#3E77B6" d="M49.619,12.746v15.666h4.261v-9.189c0-0.429,0.046-0.887,0.198-1.28c0.353-0.927,1.213-2.008,2.587-2.008
		c1.719,0,2.523,1.452,2.523,3.548v8.93h4.253v-9.3c0-0.412,0.056-0.906,0.178-1.27c0.35-1.053,1.278-1.908,2.557-1.908
		c1.742,0,2.578,1.426,2.578,3.891v8.587h4.258v-9.228c0-4.866-2.472-6.793-5.262-6.793c-1.238,0-2.212,0.311-3.095,0.85
		c-0.741,0.456-1.403,1.102-1.984,1.952h-0.063c-0.673-1.688-2.256-2.802-4.32-2.802c-2.651,0-3.84,1.342-4.562,2.48h-0.065v-2.126
		H49.619z"/>
	<path fill="#E9BE3B" d="M132.362,12.1c0.841,0,1.534-0.437,1.628-1.004l0.833-9.401c0-0.93-1.09-1.694-2.458-1.694
		c-1.369,0-2.455,0.765-2.455,1.694l0.83,9.401c0.09,0.567,0.785,1.004,1.625,1.004H132.362z"/>
	<path fill="#E9BE3B" d="M127.279,15.037c0.42-0.728,0.387-1.548-0.056-1.908l-7.731-5.421c-0.804-0.467-2.01,0.095-2.694,1.28
		c-0.687,1.185-0.564,2.506,0.239,2.97l8.56,3.985c0.537,0.2,1.263-0.183,1.686-0.91L127.279,15.037z"/>
	<path fill="#E9BE3B" d="M137.449,15.033c0.424,0.725,1.146,1.11,1.684,0.913l8.561-3.988c0.807-0.464,0.918-1.785,0.237-2.971
		c-0.685-1.185-1.892-1.746-2.694-1.282l-7.73,5.424c-0.442,0.362-0.475,1.181-0.053,1.908L137.449,15.033z"/>
	<path fill="#E9BE3B" d="M132.362,23.845c0.841,0,1.534,0.434,1.628,0.999l0.833,9.406c0,0.93-1.09,1.692-2.458,1.692
		c-1.369,0-2.455-0.763-2.455-1.692l0.83-9.406c0.09-0.565,0.785-0.999,1.625-0.999H132.362z"/>
	<path fill="#E9BE3B" d="M137.449,20.911c0.424-0.735,1.146-1.111,1.684-0.911l8.561,3.979c0.807,0.47,0.918,1.794,0.237,2.979
		c-0.685,1.181-1.892,1.744-2.694,1.281l-7.73-5.421c-0.442-0.366-0.475-1.186-0.053-1.911L137.449,20.911z"/>
	<path fill="#E9BE3B" d="M127.279,20.907c0.42,0.726,0.387,1.545-0.056,1.912l-7.731,5.417c-0.804,0.466-2.01-0.098-2.694-1.28
		c-0.687-1.184-0.564-2.507,0.239-2.977l8.56-3.978c0.537-0.202,1.263,0.174,1.686,0.909L127.279,20.907z"/>
	<path fill="#E9BE3B" d="M150.144,27.536h0.147c0.17,0,0.308-0.054,0.308-0.193c0-0.125-0.091-0.204-0.285-0.204
		c-0.081,0-0.139,0.006-0.17,0.014V27.536z M150.135,28.281h-0.308v-1.33c0.121-0.019,0.292-0.037,0.508-0.037
		c0.255,0,0.369,0.037,0.46,0.104c0.078,0.056,0.133,0.154,0.133,0.285c0,0.162-0.118,0.266-0.274,0.314v0.018
		c0.129,0.04,0.194,0.145,0.237,0.323c0.037,0.202,0.072,0.276,0.095,0.323h-0.321c-0.044-0.047-0.065-0.161-0.107-0.323
		c-0.025-0.139-0.107-0.204-0.275-0.204h-0.146V28.281z M150.335,26.533c-0.573,0-1.02,0.476-1.02,1.062
		c0,0.59,0.446,1.062,1.039,1.062c0.573,0.011,1.014-0.472,1.014-1.055c0-0.593-0.44-1.068-1.021-1.068H150.335z M150.354,26.262
		c0.753,0,1.355,0.584,1.355,1.333c0,0.746-0.603,1.336-1.363,1.336s-1.372-0.59-1.372-1.336c0-0.749,0.611-1.333,1.372-1.333
		H150.354z"/>
</g>
<g>
</g>
<g>
</g>
<g>
</g>
<g>
</g>
<g>
</g>
<g>
</g>
</svg>
