<?xml version="1.0" encoding="utf-8"?>
<!-- Generator: Adobe Illustrator 16.0.0, SVG Export Plug-In . SVG Version: 6.00 Build 0)  -->
<!DOCTYPE svg PUBLIC "-//W3C//DTD SVG 1.1//EN" "http://www.w3.org/Graphics/SVG/1.1/DTD/svg11.dtd">
<svg version="1.1" id="Capa_1" xmlns="http://www.w3.org/2000/svg" xmlns:xlink="http://www.w3.org/1999/xlink" x="0px" y="0px"
	 width="301.89px" height="70.87px" viewBox="0 0 301.89 70.87" enable-background="new 0 0 301.89 70.87" xml:space="preserve">
<g>
	<g>
		<path fill="#3D70AB" d="M85.208,22.814c0,0.287-0.026,0.586-0.109,0.85c-0.327,1.084-1.45,2.002-2.854,2.002
			c-1.174,0-2.105-0.666-2.105-2.073c0-2.152,2.373-2.746,5.07-2.732L85.208,22.814L85.208,22.814z M89.438,19.066
			c0-3.553-1.514-6.676-6.643-6.676c-2.632,0-4.721,0.742-5.861,1.397l0.833,2.853c1.043-0.656,2.704-1.201,4.274-1.201
			c2.603-0.004,3.027,1.471,3.027,2.418v0.225c-5.67-0.006-9.253,1.955-9.253,5.951c0,2.443,1.826,4.732,4.998,4.732
			c1.949,0,3.583-0.779,4.562-2.025h0.092c0,0,0.648,2.707,4.22,1.672c-0.188-1.127-0.25-2.327-0.25-3.776L89.438,19.066
			L89.438,19.066z"/>
		<path fill="#3D70AB" d="M1.122,7.557c0,0,3.703,15.172,4.293,17.637c0.69,2.873,1.933,3.932,5.52,3.219l2.313-9.409
			c0.589-2.335,0.979-4,1.356-6.38h0.067c0.264,2.402,0.641,4.05,1.123,6.39c0,0,0.94,4.268,1.423,6.512
			c0.483,2.246,1.83,3.66,5.341,2.889l5.511-20.854h-4.45l-1.881,9.016c-0.506,2.625-0.966,4.674-1.317,7.074h-0.064
			c-0.319-2.377-0.729-4.348-1.247-6.902L17.15,7.559h-4.637l-2.094,8.955c-0.592,2.721-1.149,4.92-1.503,7.24H8.854
			c-0.361-2.187-0.845-4.945-1.366-7.578c0,0-1.245-6.408-1.682-8.617H1.122V7.557z"/>
		<path fill="#3D70AB" d="M36.48,22.814c0,0.287-0.022,0.586-0.104,0.85c-0.328,1.084-1.453,2.002-2.859,2.002
			c-1.174,0-2.104-0.666-2.104-2.073c0-2.152,2.371-2.746,5.067-2.732V22.814z M40.712,19.066c0-3.553-1.518-6.676-6.643-6.676
			c-2.631,0-4.722,0.742-5.859,1.397l0.831,2.853c1.045-0.656,2.705-1.201,4.275-1.201c2.603-0.004,3.028,1.471,3.028,2.418v0.225
			c-5.671-0.006-9.254,1.955-9.254,5.951c0,2.443,1.825,4.732,4.995,4.732c1.952,0,3.583-0.779,4.563-2.025h0.097
			c0,0,0.648,2.707,4.216,1.672c-0.189-1.127-0.249-2.327-0.249-3.776V19.066z"/>
		<polygon fill="#3D70AB" points="47.772,23.982 47.772,7.557 43.539,7.557 43.539,28.412 47.772,28.412 		"/>
		<path fill="#3D70AB" d="M103.199,7.557v15.387c0,2.115,0.4,3.604,1.255,4.514c0.744,0.791,1.975,1.31,3.448,1.31
			c1.252,0,2.483-0.24,3.067-0.453L110.916,25c-0.435,0.107-0.935,0.193-1.61,0.193c-1.442,0-1.928-0.926-1.928-2.83v-5.885h3.688
			v-3.99h-3.688V7.557H103.199L103.199,7.557z"/>
		<path fill="#3D70AB" d="M92.263,12.746v15.666h4.372v-8.021c0-0.438,0.028-0.812,0.095-1.158c0.322-1.682,1.608-2.754,3.454-2.754
			c0.507,0,0.869,0.055,1.263,0.109v-4.103c-0.329-0.063-0.553-0.096-0.963-0.096c-1.634,0-3.486,1.053-4.265,3.309h-0.121v-2.953
			H92.263z"/>
		<path fill="#3D70AB" d="M50.741,12.746v15.666h4.261v-9.188c0-0.43,0.046-0.887,0.198-1.281c0.353-0.926,1.213-2.008,2.587-2.008
			c1.719,0,2.522,1.453,2.522,3.549v8.93h4.253v-9.301c0-0.412,0.057-0.906,0.179-1.27c0.35-1.054,1.277-1.908,2.557-1.908
			c1.742,0,2.578,1.426,2.578,3.891v8.588h4.258v-9.229c0-4.865-2.472-6.793-5.262-6.793c-1.238,0-2.212,0.311-3.096,0.85
			c-0.74,0.457-1.402,1.103-1.983,1.953h-0.063c-0.673-1.688-2.256-2.803-4.319-2.803c-2.651,0-3.841,1.342-4.563,2.479h-0.064
			v-2.125L50.741,12.746L50.741,12.746z"/>
		<path fill="#E0B840" d="M133.483,13.1c0.842,0,1.535-0.438,1.628-1.004l0.833-9.402c0-0.93-1.09-1.693-2.458-1.693
			s-2.454,0.765-2.454,1.693l0.828,9.402c0.091,0.565,0.786,1.004,1.625,1.004H133.483L133.483,13.1z"/>
		<path fill="#E0B840" d="M128.4,16.037c0.42-0.729,0.388-1.549-0.055-1.907l-7.732-5.423c-0.803-0.467-2.009,0.097-2.693,1.281
			c-0.687,1.185-0.564,2.506,0.239,2.969l8.56,3.986c0.537,0.199,1.263-0.184,1.686-0.91L128.4,16.037z"/>
		<path fill="#E0B840" d="M138.57,16.033c0.424,0.726,1.147,1.109,1.685,0.912l8.56-3.988c0.809-0.463,0.919-1.784,0.238-2.971
			c-0.685-1.184-1.891-1.746-2.694-1.281l-7.729,5.425c-0.443,0.36-0.477,1.18-0.053,1.907L138.57,16.033z"/>
		<path fill="#E0B840" d="M133.483,24.845c0.842,0,1.535,0.434,1.628,1l0.833,9.405c0,0.931-1.09,1.691-2.458,1.691
			s-2.454-0.762-2.454-1.691l0.828-9.405c0.091-0.566,0.786-1,1.625-1H133.483z"/>
		<path fill="#E0B840" d="M138.57,21.91c0.424-0.733,1.147-1.11,1.685-0.91l8.56,3.979c0.809,0.471,0.919,1.795,0.238,2.979
			c-0.685,1.183-1.891,1.744-2.694,1.281l-7.729-5.42c-0.443-0.367-0.477-1.186-0.053-1.912L138.57,21.91z"/>
		<path fill="#E0B840" d="M128.4,21.906c0.42,0.728,0.388,1.545-0.055,1.912l-7.732,5.418c-0.803,0.465-2.009-0.098-2.693-1.281
			c-0.687-1.184-0.564-2.506,0.239-2.977l8.56-3.978c0.537-0.202,1.263,0.175,1.686,0.908L128.4,21.906z"/>
		<path fill="#E0B840" d="M151.266,28.535h0.147c0.17,0,0.308-0.053,0.308-0.192c0-0.125-0.091-0.203-0.285-0.203
			c-0.081,0-0.139,0.006-0.17,0.014V28.535z M151.257,29.281h-0.308v-1.33c0.12-0.02,0.292-0.037,0.508-0.037
			c0.255,0,0.369,0.037,0.46,0.104c0.079,0.055,0.133,0.154,0.133,0.285c0,0.162-0.118,0.266-0.274,0.313v0.019
			c0.129,0.039,0.195,0.145,0.237,0.321c0.038,0.203,0.072,0.277,0.095,0.324h-0.32c-0.044-0.047-0.065-0.162-0.108-0.324
			c-0.024-0.139-0.107-0.202-0.275-0.202h-0.146L151.257,29.281L151.257,29.281z M151.457,27.533c-0.573,0-1.021,0.476-1.021,1.062
			c0,0.59,0.446,1.063,1.039,1.063c0.573,0.01,1.015-0.473,1.015-1.055c0-0.594-0.44-1.068-1.021-1.068L151.457,27.533
			L151.457,27.533z M151.477,27.263c0.753,0,1.355,0.584,1.355,1.332c0,0.746-0.603,1.336-1.363,1.336
			c-0.76,0-1.372-0.59-1.372-1.336c0-0.748,0.611-1.332,1.372-1.332H151.477z"/>
	</g>
	<g>
		<g>
			<path fill="#3D70AB" d="M61.3,53.628c-1.434-0.685-2.798-0.849-4.229-0.849c-4.542,0-6.365,2.67-6.365,5.344
				c0,2.507,1.917,3.683,4.641,3.683c1.624,0,3.109-0.281,4.301-0.789l-0.483,3.035c-1.093,0.309-2.991,0.551-4.523,0.551
				c-5.464,0-8.599-2.699-8.599-6.582c0-4.693,3.959-8.035,10.328-8.035c3.252,0,5.073,0.465,5.996,0.75L61.3,53.628z"/>
			<path fill="#3D70AB" d="M74.294,56.055c0,2.373-1.456,5.75-4.953,5.75c-2.36,0-3.16-1.48-3.16-3.258
				c0-2.392,1.458-5.769,4.955-5.769C73.493,52.779,74.294,54.277,74.294,56.055z M78.958,55.757c0-2.914-2.018-5.771-7.529-5.771
				c-6.539,0-9.912,3.504-9.912,8.861c0,2.897,2.015,5.756,7.531,5.756C75.583,64.602,78.958,61.098,78.958,55.757z"/>
			<path fill="#3D70AB" d="M82.482,50.229h4.59l-2.817,11.336h7.089l-0.698,2.795H78.959L82.482,50.229z"/>
			<path fill="#3D70AB" d="M109.127,53.548c-1.477-0.545-2.935-0.769-4.907-0.769c-4.539,0-6.363,2.67-6.363,5.344
				c0,2.507,1.922,3.683,4.229,3.683c0.583,0,1.167-0.076,1.796-0.24l0.752-2.797h-2.695l0.654-2.666h7.117l-2.018,7.871
				c-1.698,0.428-4.439,0.629-5.897,0.629c-5.471,0-8.602-2.699-8.602-6.582c0-4.693,3.376-8.035,11.249-8.035
				c2.063,0,3.811,0.289,5.657,0.691L109.127,53.548z"/>
			<path fill="#3D70AB" d="M122.104,58.669h-4.374l3.597-5.523h0.049L122.104,58.669z M109.035,64.359h4.906l2.018-3.018h6.581
				l0.461,3.018h4.568l-2.769-14.131h-5.688L109.035,64.359z"/>
			<path fill="#3D70AB" d="M132.938,53.023h-4.225l0.727-2.795h13.053l-0.731,2.795h-4.228l-2.89,11.336h-4.596L132.938,53.023z"/>
			<path fill="#3D70AB" d="M143.825,50.229h11.929l-0.654,2.674h-7.457l-0.778,2.912h7.068l-0.703,2.674h-7.047l-0.827,3.193h7.751
				l-0.651,2.678h-12.27L143.825,50.229z"/>
			<path fill="#3D70AB" d="M169.291,52.902h1.332c1.215,0,2.333,0.279,2.333,1.639c0,1.683-1.628,2.205-3.428,2.205h-1.217
				L169.291,52.902z M161.854,64.359h4.521l1.257-4.938h2.31c4.078,0,7.534-1.787,7.534-5.312c0-3.559-3.748-3.883-7.462-3.883
				h-4.519L161.854,64.359z"/>
			<path fill="#3D70AB" d="M186.411,58.669h-4.37l3.599-5.523h0.049L186.411,58.669z M173.346,64.359h4.906l2.017-3.018h6.588
				l0.459,3.018h4.563l-2.768-14.131h-5.688L173.346,64.359z"/>
			<path fill="#3D70AB" d="M196.644,50.229h4.588l-2.817,11.336h7.1l-0.706,2.795H193.12L196.644,50.229z"/>
			<path fill="#3D70AB" d="M209.616,50.229h7.094l0.266,9.49h0.049l5.321-9.49h7.241l-3.603,14.131h-4.418l3.084-11.58h-0.044
				l-6.661,11.58h-4.271l-0.634-11.58h-0.049l-2.939,11.58h-4.135L209.616,50.229z"/>
			<path fill="#3D70AB" d="M242.337,56.055c0,2.373-1.455,5.75-4.955,5.75c-2.359,0-3.159-1.48-3.159-3.258
				c0-2.392,1.458-5.769,4.957-5.769C241.536,52.779,242.337,54.277,242.337,56.055z M247.005,55.757
				c0-2.914-2.019-5.771-7.531-5.771c-6.537,0-9.914,3.504-9.914,8.861c0,2.897,2.02,5.756,7.533,5.756
				C243.628,64.602,247.005,61.098,247.005,55.757z"/>
			<path fill="#3D70AB" d="M250.527,50.229h4.593l-2.818,11.336h7.094l-0.703,2.795h-11.688L250.527,50.229z"/>
			<path fill="#3D70AB" d="M263.745,50.229h4.563l-3.521,14.131h-4.567L263.745,50.229z"/>
			<path fill="#3D70AB" d="M277.613,64.359h-5.587l-2.208-14.131h4.543l1.142,10.686h0.049l6.556-10.686h4.887L277.613,64.359z"/>
			<path fill="#3D70AB" d="M288.33,50.229h11.929l-0.656,2.674h-7.463l-0.775,2.912h7.066l-0.699,2.674h-7.047l-0.824,3.193h7.748
				l-0.65,2.678h-12.27L288.33,50.229z"/>
		</g>
		<g>
			<path fill="#3D70AB" d="M30.868,43.018H24.82l-1.974,8.41h6.784c0.928,0,1.687,0.756,1.687,1.688
				c0,0.929-0.758,1.688-1.687,1.688h-7.573l-3.714,15.854h8.852l1.727-7.346c0,0,10.227,1.092,11.878-8.635
				C42.752,43.207,30.868,43.018,30.868,43.018z"/>
			<path fill="#3D70AB" d="M19.622,54.805h-5.8c-0.927,0-1.685-0.76-1.685-1.688c0-0.934,0.758-1.688,1.685-1.688h6.579l1.925-8.41
				h-9.739c0,0-12.001,0.209-9.936,11.662c1.687,9.34,11.879,8.635,11.879,8.635h3.071L19.622,54.805z"/>
		</g>
	</g>
	<g>
		<path fill="#B83A18" d="M172.496,21.141c-0.353-0.338-0.786-0.611-1.305-0.611c-1.032,0-1.971,0.922-2.136,2.127
			c-0.173,1.263,0.488,2.144,1.594,2.144c0.473,0,1.02-0.22,1.426-0.595l-0.36,2.623c-0.637,0.341-1.309,0.494-1.957,0.494
			c-2.242,0-3.854-1.924-3.489-4.563c0.384-2.81,2.511-4.75,4.887-4.75c0.62,0,1.216,0.174,1.701,0.512L172.496,21.141z"/>
		<path fill="none" stroke="#FFFFFF" stroke-width="1.3333" d="M172.496,21.141c-0.353-0.338-0.786-0.611-1.305-0.611
			c-1.032,0-1.971,0.922-2.136,2.127c-0.173,1.263,0.488,2.144,1.594,2.144c0.473,0,1.02-0.22,1.426-0.595l-0.36,2.623
			c-0.637,0.341-1.309,0.494-1.957,0.494c-2.242,0-3.854-1.924-3.489-4.563c0.384-2.81,2.511-4.75,4.887-4.75
			c0.62,0,1.216,0.174,1.701,0.512L172.496,21.141z"/>
		<path fill="#B83A18" d="M177.422,11.744l-0.971,7.056h0.033c0.813-1.031,1.695-1.513,2.833-1.513c2.082,0,2.874,1.586,2.542,3.988
			l-0.797,5.795h-2.913l0.667-4.854c0.152-1.105,0.165-2.254-1.004-2.254c-1.151,0-1.678,1.147-1.83,2.254l-0.668,4.854h-2.912
			l2.104-15.326H177.422z"/>
		<path fill="none" stroke="#FFFFFF" stroke-width="1.3333" d="M177.422,11.744l-0.971,7.056h0.033
			c0.813-1.031,1.695-1.513,2.833-1.513c2.082,0,2.874,1.586,2.542,3.988l-0.797,5.795h-2.913l0.667-4.854
			c0.152-1.105,0.165-2.254-1.004-2.254c-1.151,0-1.678,1.147-1.83,2.254l-0.668,4.854h-2.912l2.104-15.326H177.422z"/>
		<path fill="#B83A18" d="M192.151,27.082h-3.197l0.157-1.151h-0.034c-0.704,1.031-1.876,1.496-2.931,1.496
			c-2.672,0-4.199-2.574-3.791-5.554c0.41-2.979,2.605-5.534,5.277-5.534c1.039,0,2.067,0.446,2.606,1.358l0.142-1.014h3.199
			L192.151,27.082z M185.659,21.891c-0.181,1.317,0.436,2.332,1.733,2.332c1.303,0,2.197-1.015,2.379-2.332
			c0.174-1.275-0.434-2.351-1.731-2.351C186.737,19.541,185.835,20.615,185.659,21.891"/>
		<path fill="none" stroke="#FFFFFF" stroke-width="1.3333" d="M192.151,27.082h-3.197l0.157-1.151h-0.034
			c-0.704,1.031-1.876,1.496-2.931,1.496c-2.672,0-4.199-2.574-3.791-5.554c0.41-2.979,2.605-5.534,5.277-5.534
			c1.039,0,2.067,0.446,2.606,1.358l0.142-1.014h3.199L192.151,27.082z M185.659,21.891c-0.181,1.317,0.436,2.332,1.733,2.332
			c1.303,0,2.197-1.015,2.379-2.332c0.174-1.275-0.434-2.351-1.731-2.351C186.737,19.541,185.835,20.615,185.659,21.891z"/>
		<path fill="#B83A18" d="M197.7,17.156h0.036c0.999-1.379,2.043-1.842,3.406-1.842c2.658,0,3.451,1.932,3.066,4.725l-0.967,7.031
			h-3.503l0.765-5.543c0.147-1.09,0.563-2.998-1.166-2.998c-1.422,0-1.996,1.219-2.19,2.642l-0.81,5.899h-3.501l1.562-11.381h3.502
			L197.7,17.156z"/>
		<path fill="none" stroke="#FFFFFF" stroke-width="1.3333" d="M197.7,17.156h0.036c0.999-1.379,2.043-1.842,3.406-1.842
			c2.658,0,3.451,1.932,3.066,4.725l-0.967,7.031h-3.503l0.765-5.543c0.147-1.09,0.563-2.998-1.166-2.998
			c-1.422,0-1.996,1.219-2.19,2.642l-0.81,5.899h-3.501l1.562-11.381h3.502L197.7,17.156z"/>
		<path fill="#B83A18" d="M216.729,25.791c-0.746,5.429-3.381,7.621-7.463,7.621c-2.549,0-5.753-1.518-5.636-4.879h4.406
			c0.046,0.445,0.281,0.771,0.6,0.97c0.319,0.198,0.714,0.301,1.083,0.301c2.115,0,2.746-1.599,3.029-3.662l0.082-0.596
			c-1.177,1.166-2.291,1.737-3.761,1.737c-3.239,0-5.075-2.836-4.568-6.522c0.513-3.738,3.24-6.926,6.634-6.926
			c1.295,0,2.413,0.5,3.018,1.768h0.042l0.188-1.346h3.929L216.729,25.791z M208.591,20.559c-0.225,1.621,0.534,2.865,2.135,2.865
			c1.599,0,2.697-1.244,2.92-2.865c0.215-1.57-0.533-2.894-2.131-2.894C209.915,17.666,208.804,18.988,208.591,20.559"/>
		<path fill="none" stroke="#FFFFFF" stroke-width="1.3333" d="M216.729,25.791c-0.746,5.429-3.381,7.621-7.463,7.621
			c-2.549,0-5.753-1.518-5.636-4.879h4.406c0.046,0.445,0.281,0.771,0.6,0.97c0.319,0.198,0.714,0.301,1.083,0.301
			c2.115,0,2.746-1.599,3.029-3.662l0.082-0.596c-1.177,1.166-2.291,1.737-3.761,1.737c-3.239,0-5.075-2.836-4.568-6.522
			c0.513-3.738,3.24-6.926,6.634-6.926c1.295,0,2.413,0.5,3.018,1.768h0.042l0.188-1.346h3.929L216.729,25.791z M208.591,20.559
			c-0.225,1.621,0.534,2.865,2.135,2.865c1.599,0,2.697-1.244,2.92-2.865c0.215-1.57-0.533-2.894-2.131-2.894
			C209.915,17.666,208.804,18.988,208.591,20.559z"/>
		<path fill="#B83A18" d="M233.032,19.695c-0.671,4.885-4.56,7.668-8.576,7.668c-3.992,0-7.146-2.758-6.47-7.668
			c0.675-4.916,4.562-7.695,8.578-7.695C230.585,12,233.708,14.779,233.032,19.695 M222.659,19.695
			c-0.248,1.826,0.604,3.228,2.407,3.228c1.802,0,3.041-1.4,3.291-3.228c0.242-1.77-0.6-3.26-2.399-3.26
			C224.154,16.436,222.9,17.927,222.659,19.695"/>
		<path fill="none" stroke="#FFFFFF" stroke-width="1.3333" d="M233.032,19.695c-0.671,4.885-4.56,7.668-8.576,7.668
			c-3.992,0-7.146-2.758-6.47-7.668c0.675-4.916,4.562-7.695,8.578-7.695C230.585,12,233.708,14.779,233.032,19.695z
			 M222.659,19.695c-0.248,1.826,0.604,3.228,2.407,3.228c1.802,0,3.041-1.4,3.291-3.228c0.242-1.77-0.6-3.26-2.399-3.26
			C224.154,16.436,222.9,17.927,222.659,19.695z"/>
		<path fill="#B63528" d="M172.496,21.141c-0.353-0.338-0.786-0.611-1.305-0.611c-1.032,0-1.971,0.922-2.136,2.127
			c-0.173,1.263,0.488,2.144,1.594,2.144c0.473,0,1.02-0.22,1.426-0.595l-0.36,2.623c-0.637,0.341-1.309,0.494-1.957,0.494
			c-2.242,0-3.854-1.924-3.489-4.563c0.384-2.81,2.511-4.75,4.887-4.75c0.62,0,1.216,0.174,1.701,0.512L172.496,21.141z"/>
		<path fill="#B63528" d="M177.422,11.744l-0.971,7.056h0.033c0.813-1.031,1.695-1.513,2.833-1.513c2.082,0,2.874,1.586,2.542,3.988
			l-0.797,5.795h-2.913l0.667-4.854c0.152-1.105,0.165-2.254-1.004-2.254c-1.151,0-1.678,1.147-1.83,2.254l-0.668,4.854h-2.912
			l2.104-15.326H177.422z"/>
		<path fill="#B63528" d="M192.151,27.082h-3.197l0.157-1.151h-0.034c-0.704,1.031-1.876,1.496-2.931,1.496
			c-2.672,0-4.199-2.574-3.791-5.554c0.41-2.979,2.605-5.534,5.277-5.534c1.039,0,2.067,0.446,2.606,1.358l0.142-1.014h3.199
			L192.151,27.082z M185.659,21.891c-0.181,1.317,0.436,2.332,1.733,2.332c1.303,0,2.197-1.015,2.379-2.332
			c0.174-1.275-0.434-2.351-1.731-2.351C186.737,19.541,185.835,20.615,185.659,21.891"/>
		<path fill="#B63528" d="M197.7,17.156h0.036c0.999-1.379,2.043-1.842,3.406-1.842c2.658,0,3.451,1.932,3.066,4.725l-0.967,7.031
			h-3.503l0.765-5.543c0.147-1.09,0.563-2.998-1.166-2.998c-1.422,0-1.996,1.219-2.19,2.642l-0.81,5.899h-3.501l1.562-11.381h3.502
			L197.7,17.156z"/>
		<path fill="#B63528" d="M216.729,25.791c-0.746,5.429-3.381,7.621-7.463,7.621c-2.549,0-5.753-1.518-5.636-4.879h4.406
			c0.046,0.445,0.281,0.771,0.6,0.97c0.319,0.198,0.714,0.301,1.083,0.301c2.115,0,2.746-1.599,3.029-3.662l0.082-0.596
			c-1.177,1.166-2.291,1.737-3.761,1.737c-3.239,0-5.075-2.836-4.568-6.522c0.513-3.738,3.24-6.926,6.634-6.926
			c1.295,0,2.413,0.5,3.018,1.768h0.042l0.188-1.346h3.929L216.729,25.791z M208.591,20.559c-0.225,1.621,0.534,2.865,2.135,2.865
			c1.599,0,2.697-1.244,2.92-2.865c0.215-1.57-0.533-2.894-2.131-2.894C209.915,17.666,208.804,18.988,208.591,20.559"/>
		<path fill="#B63528" d="M233.032,19.695c-0.671,4.885-4.56,7.668-8.576,7.668c-3.992,0-7.146-2.758-6.47-7.668
			c0.675-4.916,4.562-7.695,8.578-7.695C230.585,12,233.708,14.779,233.032,19.695 M222.659,19.695
			c-0.248,1.826,0.604,3.228,2.407,3.228c1.802,0,3.041-1.4,3.291-3.228c0.242-1.77-0.6-3.26-2.399-3.26
			C224.154,16.436,222.9,17.927,222.659,19.695"/>
		<path fill="#29783C" d="M240.36,12.701h0.059c1.488-1.877,3.114-2.674,5.003-2.674c2.117,0,3.813,0.994,4.562,3.236
			c1.295-2.113,3.425-3.236,5.427-3.236c3.723,0,4.623,2.81,4.088,6.705l-1.48,10.793h-5.209l1.109-8.088
			c0.242-1.75,0.692-4.623-1.513-4.623c-2.403,0-2.847,2.609-3.125,4.623l-1.108,8.088h-5.208l1.109-8.088
			c0.259-1.879,0.653-4.75-1.663-4.75c-2.32,0-2.716,2.871-2.974,4.75l-1.11,8.088h-5.207l2.323-16.934h5.209L240.36,12.701z"/>
		<path fill="#29783C" d="M280.321,28.107h-6.54l0.324-2.363h-0.071c-1.44,2.113-3.835,3.066-5.992,3.066
			c-5.461,0-8.584-5.264-7.748-11.354c0.838-6.094,5.327-11.315,10.789-11.315c2.121,0,4.225,0.914,5.332,2.776l0.285-2.069h6.538
			L280.321,28.107z M267.044,17.496c-0.369,2.695,0.891,4.767,3.551,4.767s4.489-2.07,4.859-4.767
			c0.356-2.61-0.886-4.807-3.543-4.807C269.25,12.689,267.402,14.886,267.044,17.496"/>
		<path fill="#29783C" d="M299.318,9.896c-1.076-0.729-2.648-1.213-3.952-1.213c-0.886,0-2.456,0.436-2.632,1.697
			c-0.231,1.694,2.132,1.94,3.149,2.182c3.46,0.824,5.884,2.762,5.251,7.369c-0.897,6.545-6.443,9.264-11.445,9.264
			c-3.067,0-5.957-1.022-8.311-2.863l3.62-6.155c1.383,1.26,3.815,2.522,5.708,2.522c0.967,0,2.47-0.535,2.655-1.895
			c0.268-1.939-2.114-2.035-4.412-2.767c-2.295-0.729-4.508-2.082-3.894-6.541c0.838-6.11,6.003-8.825,10.716-8.825
			c2.436,0,4.813,0.434,6.881,1.6L299.318,9.896z"/>
	</g>
</g>
<g>
</g>
<g>
</g>
<g>
</g>
<g>
</g>
<g>
</g>
<g>
</g>
</svg>
